<?xml version="1.0" encoding="UTF-8"?><svg id="a" xmlns="http://www.w3.org/2000/svg" viewBox="0 0 1440 784"><defs><style>.b{fill:#19303b;}.c{fill:#3a6878;fill-rule:evenodd;}</style></defs><rect class="b" width="1440" height="784"/><g><path class="c" d="M1221.02,312.61s.05,.04,.1,.06c.03,.01,.07,.02,.1,.03-.09-.03-.18-.07-.25-.12h0s.05,.02,.05,.03Z"/><path class="c" d="M1164.75,283.8h-.02s-.03,0-.05,0c.02,0,.04,0,.07,0Z"/><path class="c" d="M1123.8,286.98h0c-.05,0-.1,0-.15,0,.05,0,.09,0,.15,0Z"/><path class="c" d="M1160.97,282.71c-.15-.06-.28-.12-.41-.19,.2,.09,.38,.17,.56,.26-.05-.02-.1-.05-.15-.07Z"/><path class="c" d="M1123.41,286.97c.09,0,.16,0,.24,0-.09,0-.18,0-.27,0h.03Z"/><path class="c" d="M1041.81,400.55h0Z"/><path class="c" d="M1162.18,283.22c-.18-.07-.37-.15-.57-.23h0c.19,.08,.38,.16,.57,.23Z"/><path class="c" d="M1162.25,283.25l-.08-.03h.03l.04,.03Z"/><path class="c" d="M1161.12,282.78c.06,.03,.12,.06,.18,.08-.06-.03-.12-.06-.18-.08Z"/><path class="c" d="M1159.97,282.24s-.02-.02-.03-.03l-.06-.02s.06,.03,.1,.05Z"/><path class="c" d="M1162.87,283.46c-.2-.06-.4-.13-.62-.21,.19,.07,.37,.13,.56,.19,.02,0,.04,.01,.06,.02Z"/><path class="c" d="M1161.3,282.87c.1,.05,.2,.09,.31,.13-.11-.04-.21-.09-.31-.13Z"/><path class="c" d="M1160.27,282.39c.1,.04,.2,.09,.29,.13-.19-.09-.39-.19-.59-.29h0c.1,.06,.2,.11,.3,.16Z"/><path class="c" d="M1221.34,312.74s-.08-.02-.12-.03c.02,0,.03,.01,.05,.01,.02,0,.05,.01,.07,.02Z"/><path class="c" d="M388.31,175.88c-.34,0-.67-.02-.98-.07,.31,.05,.64,.06,.98,.07Z"/><path class="c" d="M355.43,160.76s.09-.02,.14-.04h-.01l-.13,.04Z"/><path class="c" d="M388.38,175.88h-.02s-.04,0-.06,0c.03,0,.05,0,.07,0Z"/><path class="c" d="M605.64,211.17c.2,0,.4,0,.6-.02,.2-.02,.4-.03,.65-.05,.25-.02,.5-.05,.75-.07,.24-.03,.48-.06,.76-.1l-2.9,.24c.05,0,.1,0,.15,0Z"/><path class="c" d="M353.53,161.11s-.09,0-.14,0h-.04c.06,0,.12,0,.18,0Z"/><path class="c" d="M99.82,53.4c.1-.08,.22-.13,.35-.16-.15,.03-.27,.08-.35,.16Z"/><path class="c" d="M785.46,232.33h-.11c-.3,0-.55,.02-.84,.02-.05,0-.15,0-.2,0-.05,0-.1,0-.15,0h.05c.41-.01,.83-.02,1.26-.03Z"/><path class="c" d="M384.85,174.54c.39,.45,.86,.77,1.41,.98-.54-.21-1.01-.53-1.41-.98Z"/><path class="c" d="M1221.76,312.79h-.02s-.06,0-.09,0c.04,0,.08,0,.11,0Z"/><path class="c" d="M1340.52,86.74h0c-.23,0-.45,0-.65-.02,.2,.01,.42,.02,.65,.02Z"/><path class="c" d="M1221.56,312.78s.05,0,.09,0c-.11,0-.21-.03-.31-.05,.03,0,.05,.02,.08,.02,.05,0,.09,.01,.14,.02Z"/><path class="c" d="M690.47,264.09h.69c-.1,0-.2,0-.29,0-.15,0-.3,0-.4,0Z"/><path class="c" d="M1359.23,66.26c.05-.35,.1-.7,.15-1.05,0-.22,.05-.45,.1-.67v-.28l-.28,2.25c.01-.08,.02-.17,.03-.25Z"/><path class="c" d="M794.69,232.14c-1.94,.03-3.98,.07-5.99,.12,1.07-.02,2.14-.05,3.26-.07,.91-.02,1.82-.04,2.73-.05Z"/><path class="c" d="M691.91,264.07c.16,0,.3,0,.45,0h-1.2c.25,.01,.5,0,.75,0Z"/><path class="c" d="M100.3,53.22c.07-.01,.14-.01,.21-.02h.05c-.09-.01-.17,0-.26,.02Z"/><path class="c" d="M844.74,183.87c.11,.01,.23,.02,.35,.03-.12,0-.24-.02-.35-.03Z"/><path class="c" d="M652.16,90.32h0Z"/><path class="c" d="M845.54,183.93h0Z"/><path class="c" d="M845.61,183.93c.14,0,.27,0,.41,.01-.14,0-.28,0-.41-.01Z"/><path class="c" d="M846.52,183.95c-.15,0-.3,0-.45,0,.15,0,.29,0,.45,0Z"/><path class="c" d="M846.84,183.95c-.11,0-.21,0-.31,0h.02c.11,0,.2,0,.3,0Z"/><path class="c" d="M846.02,183.94h0Z"/><path class="c" d="M844.67,183.86h0Z"/><path class="c" d="M1359.15,66.85l.04-.34-.02,.17c0,.06-.01,.11-.02,.17Z"/><path class="c" d="M845.16,183.9c.12,0,.25,.02,.38,.02-.13,0-.26-.01-.38-.02Z"/><path class="c" d="M845.09,183.9h0Z"/><path class="c" d="M805.24,153.54c.15,0,.3,0,.45-.02,.15,0,.25-.01,.4-.02,.2-.01,.35-.02,.5-.04,.2-.01,.4-.03,.55-.05,.2-.02,.4-.04,.6-.07,.2-.02,.4-.05,.6-.08,.4-.06,.8-.13,1.2-.2,.35-.05,.7-.12,.99-.18,.35-.06,.7-.14,1.04-.21,.67-.13,1.31-.27,1.94-.41l-8.41,1.29h.15Z"/><path class="c" d="M830.03,164.25h0Z"/><path class="c" d="M830.79,164.23c-.24,.01-.49,.02-.76,.02,.23,0,.44,0,.69-.02,.03,0,.05,0,.07,0Z"/><path class="c" d="M1123.26,286.97s.08,0,.12,0h-.12Z"/><path class="c" d="M831.12,164.21c-.11,0-.22,.02-.34,.02,.11,0,.21-.01,.33-.02h0Z"/><path class="c" d="M831.47,164.18c.1-.01,.2-.03,.3-.04h0c-.1,.02-.2,.03-.3,.04Z"/><path class="c" d="M829.96,164.25s-.04,0-.06,0h-.03s.06,0,.08,0Z"/><path class="c" d="M843.63,183.66c-.92-.28-1.34-.82-.97-1.81-.38,.99,.05,1.53,.97,1.81Z"/><path class="c" d="M831.46,164.18h0c-.1,.01-.21,.02-.32,.03,.1,0,.22-.02,.31-.03Z"/><path class="c" d="M844.34,183.82c.11,.02,.22,.03,.33,.04-.11-.01-.22-.03-.33-.04Z"/><path class="c" d="M844.29,183.81h0Z"/><path class="c" d="M1041.66,400.55s.05,0,.1,0h-.1Z"/><path class="c" d="M965.94,353.28h0Z"/><path class="c" d="M848.28,183.91c.2,0,.4-.01,.6-.02h.33c-.43,0-.85,.02-1.26,.03,.11,0,.22,0,.33-.01Z"/><path class="c" d="M847.18,183.94h.06c-.11,0-.22,0-.33,0,.09,0,.18,0,.27,0Z"/><path class="c" d="M991.66,371.48h0s-.04,0-.06,0c.02,0,.05,0,.07,0Z"/><path class="c" d="M1035.44,400.74c.14,0,.28,0,.42,0-.25,0-.5,0-.75,0h.33Z"/><path class="c" d="M849.21,183.88c.82-.03,1.66-.06,2.48-.07-.32,0-.65,.01-.97,.02-.49,.01-1.01,.03-1.51,.05Z"/><path class="c" d="M966.24,353.11c-.03,.06-.06,.1-.11,.12,.05-.03,.08-.07,.11-.12Z"/><path class="c" d="M966.13,353.24s-.11,.04-.18,.04c.07,0,.13-.01,.18-.04Z"/><path class="c" d="M847.68,183.93c.09,0,.18,0,.27,0-.24,0-.48,.01-.71,.02,.17,0,.31,0,.44,0Z"/><path class="c" d="M843.64,183.66c.1,.03,.2,.06,.3,.08-.11-.02-.21-.05-.3-.08Z"/><path class="c" d="M785.46,232.33c1.05-.03,2.1-.05,3.15-.08-1.06,.02-2.12,.05-3.15,.08Z"/><path class="c" d="M843.94,183.74h0Z"/><path class="c" d="M843.97,183.75c.1,.02,.2,.04,.31,.06-.11-.02-.21-.04-.31-.06Z"/><path class="c" d="M788.63,232.26h0Z"/><path class="c" d="M798.88,232.09c-.18,0-.35,0-.52,0,.63,0,1.23,0,1.8,0-.43,0-.85,0-1.28,0Z"/><path class="c" d="M843.63,183.66h0Z"/><path class="c" d="M797.68,232.1c-.45,0-.85,.01-1.29,.02-.5,0-.95,.01-1.44,.02-.08,0-.17,0-.25,0,1.28-.02,2.51-.03,3.66-.04-.22,0-.45,0-.67,0Z"/><path class="c" d="M800.22,232.09h0Z"/><path class="c" d="M1047.21,466.79c.16-.1,.31-.2,.48-.3-.05,.03-.11,.06-.15,.09-.11,.07-.22,.14-.32,.22Z"/><path class="c" d="M527.83,365.34s.06,0,.08,0c-.01,0-.02,0-.04,0h-.05Z"/><path class="c" d="M528.28,365.32l.15-.02h0c-.13,.02-.26,.03-.39,.03,.08,0,.16,0,.24-.02Z"/><path class="c" d="M527.98,365.34s.04,0,.06,0c-.04,0-.08,0-.13,0,.02,0,.04,0,.07,0Z"/><path class="c" d="M537.48,362.62c.95-4.38,3.33-7.3,3.43-12.56,.1-5.27,2.54-17.74,2.94-20.27,.4-2.53,2.34-13.24,3.73-19.87,1.39-6.62,2.74-12.66-.2-16.17-2.93-3.5-5.32-7.79-8.86-9.35-3.53-1.55-3.33-5.65-4.13-7.98-.75-2.34,.4-6.43-11.44-6.57-13.73,1.56-12.93,8.18-18.81,10.91l-11.79,2.73c-6.72-1.17-10.65-7.8-13.38-4.29-2.74,3.51-8.66,17.54-.8,17.54s11.39,1.55,11.79,4.29c.4,2.72,2.39,7.4,2.39,10.91s-8.26,5.85-3.18,12.86c5.12,7.01,8.66,12.08,7.11,14.81-1.59,2.73-9.45,3.9-7.86,10.13,1.54,6.23-4.73,12.47-.8,16.37,3.93,3.89,6.27,.39,8.66,5.06l8.61,8.97c5.52-.78,10.25-8.18,9.85-13.25-.4-5.07-2.78-9.75-.79-10.14,1.87-.38,8.5,8.66,13.93,8.61l.55-.04h0s.03,0,.05,0c.02,0,.04,0,.05,0,.04,0,.05-.01,.1-.02,.15-.02,.3-.04,.45-.05,.3-.03,.6-.05,.85-.06,.17,0,.32-.01,.47-.02-.58,.01-1.2,.06-1.86,.15h-.05l6.07,.02c-.14,0-.27,0-.41,0,1.76,.07,2.79-.23,3.34-2.69Zm-7.04,2.52c.1,0,.21,0,.32,0,.13,0,.3,0,.44,0-.25,0-.5,0-.76,0Zm3.66,.16c-.15,0-.25-.01-.4-.02-.14,0-.28-.02-.42-.03-.28-.02-.58-.04-.89-.06h-.08c-.09-.01-.2-.02-.31-.02-.19,0-.39-.02-.6-.02,.13,0,.26,0,.41,.01,.06,0,.13,0,.19,.01,.13,0,.26,.01,.39,.02,.14,0,.29,.02,.42,.02,.15,.01,.3,.02,.45,.03h.03c.29,.02,.57,.04,.82,.05h0Z"/><path class="c" d="M668.11,409.43c-.23-.15-.43-.25-.62-.3,.19,.06,.39,.16,.62,.3Z"/><path class="c" d="M527.48,247.81c-.82,2.37-1.1,4.61-1.64,6.28,.56-1.67,.83-3.91,1.64-6.28Z"/><path class="c" d="M568.33,187.61c-1.46-2.33-2.31-3.03-3.17-3.02l-1.36,.41c-.3,.14-.62,.29-.98,.45,.34-.15,.65-.3,.93-.43l-4.02,1.22c-5.12,1.18-9.45,3.31-7.07,6.23,2.34,2.93,10.8,2.15,14.33,3.12l1.05,.16c2.72,.07,3.49-3.1,.29-8.14Z"/><path class="c" d="M568.13,195.77h-.09c-.12-.02-.25-.02-.38-.04,.16,.02,.32,.04,.47,.04Z"/><path class="c" d="M565.11,184.59s.03,0,.04,0h.04s-.05,0-.08,0Z"/><path class="c" d="M564.72,184.64c-.31,.07-.62,.21-.98,.38l.06-.02c.33-.16,.63-.29,.92-.36Z"/><path class="c" d="M311.46,319.43c.11,.01,.22,.03,.34,.04h-.09c-.08-.02-.17-.03-.25-.04Z"/><path class="c" d="M309.07,319.16c-.45-.04-.85-.07-1.24-.1-.4-.02-.8-.04-1.14-.06-.12,0-.24,0-.36,0,1.43,.04,3.01,.19,4.62,.39-.19-.02-.39-.05-.58-.07-.45-.05-.9-.09-1.29-.14Z"/><path class="c" d="M313.1,319.67c-.42-.06-.88-.13-1.31-.19,.89,.12,1.78,.25,2.67,.39-.46-.07-.89-.14-1.36-.2Z"/><path class="c" d="M522.34,256.98s-.08,0-.12,0h0s.09,0,.13,0Z"/><path class="c" d="M320.17,330.59c0-.38,.05-.74,.15-1.11,0-.18,.05-.35,.05-.53,.05-.17,.1-.34,.1-.51,.05-.17,.1-.33,.15-.5,0-.16,.05-.32,.1-.48l.15-.59c.05-.19,.05-.38,.1-.56,.05-.13,.1-.27,.1-.4,.05-.13,.1-.27,.1-.4,.05-.19,.1-.38,.1-.56,.05-.14,.05-.27,.1-.41,0-.1,0-.2,.05-.31v-.69c0-.18,0-.36-.05-.54v-.09c-.05-.04-.05-.08-.05-.13,0-.06-.05-.11-.05-.17-.05-.08-.1-.16-.1-.23-.05-.09-.1-.17-.15-.25-.05-.05-.1-.11-.15-.16,0-.04-.05-.07-.1-.1,0-.02-.05-.04-.05-.07,0-.02-.05-.03-.05-.05-.15-.12-.3-.24-.45-.34,0-.02-.05-.03-.05-.05-.05-.02-.1-.04-.1-.06-.05-.03-.1-.05-.15-.08-.05-.04-.1-.06-.15-.09-.1-.04-.2-.07-.25-.11-.1-.04-.2-.09-.3-.13-.15-.05-.3-.11-.45-.15-.2-.06-.4-.12-.6-.17-.1-.03-.25-.07-.4-.1-.1-.03-.25-.06-.4-.09-.2-.05-.4-.09-.65-.13-.05-.01-.15-.03-.2-.04-.05-.01-.1-.02-.15-.02-.41-.07-.85-.14-1.28-.21,.45,.07,.89,.15,1.33,.22l-10.9-1.23c-4.92,0-7.82,1.42-4.02,6.49,7.42,4.26,14.92,12.6,17.66,12.55l.99-3.19h0v-.29c-.05-.23-.05-.46-.1-.69,0-.35-.05-.71-.05-1.06s0-.69,.05-1.03c0-.39,.05-.77,.1-1.16Z"/><path class="c" d="M319.18,338h0s.05,0,.1,0c.1,0,.15-.01,.2-.03,0-.01,.05-.02,.1-.03,0-.01,.05-.03,.05-.04,.05-.02,.1-.04,.15-.07,0-.02,.05-.03,.05-.06,0-.01,.05-.02,.05-.04,0-.01,0-.02,.05-.03,.05-.07,.1-.16,.15-.25v-.04s0-.03,.05-.05v-.07s.05-.06,.05-.09v-.12c.05-.05,.05-.11,.05-.16,0-.07,0-.14,.05-.22v-1.11c0-.1-.05-.21-.05-.31v-.33s-.04-.04-.04-.07c.28,2.22-.11,3.13-1,3.15Z"/><path class="c" d="M526.34,191.7c-7.31,1.75-12.19,.78-15.32,4.09-3.18,3.31-3.38,6.82-7.31,9.94-3.88,3.11-5.47-1.17-6.07,6.04-.6,7.21-2.74,13.64,.8,15.98,3.53,2.33,7.07,3.5,7.07,4.87s-5.87,4.09-3.33,6.43c2.54,2.34,5.67,2.15,5.52,4.1-.2,1.94-7.11,2.33,0,6.62,7.02,4.28,9.01,6.82,13.93,7.2,.22,.02,.41,.01,.6,.01l5.27-9.17c1.79-5.06,7.66-11.49,6.67-17.92-.95-6.43-2.93-7.6,.4-12.28,3.33-4.67,2.79-15.78,1.2-20.46-1.59-4.67,.2-12.86-.99-16.95l-6.87-3.12c-1.39,6.44,5.72,12.87-1.54,14.62Z"/><path class="c" d="M305.49,318.96h.04c.09,0,.17,0,.26,0-.1,0-.2,0-.3,0Z"/><path class="c" d="M320.17,334.86s0-.03,0-.05v.04h0Z"/><path class="c" d="M737.09,94.29l3.93-12.08c1.94-3.12,5.27,0,4.88-3.31l-12.14-.58c.15,5.25-.8,15.19,3.33,15.98Z"/><path class="c" d="M762.11,136.4c-2.41-.21-8.72-9.9-11.69-13.66,2.96,3.78,9.31,13.53,11.69,13.66Z"/><path class="c" d="M734.35,521.83l8.11,8.28c.75-4.14,3.43-12.9,.5-14.6-2.72-1.59-5.06-4-8.91-3.96l-.94,.05c-1.69,.25-1.19,7.31,1.24,10.23Z"/><path class="c" d="M751.42,117.7c.48,.3,1.01,.92,1.53,1.92-.5-1-1.05-1.62-1.53-1.92Z"/><path class="c" d="M762.16,136.41h0s-.01,0-.02,0h.02Z"/><path class="c" d="M1001.4,437.07c-.59-.08-1.31-.22-2.15-.37l-.11-.02c.88,.16,1.63,.31,2.26,.39Z"/><path class="c" d="M999.14,436.68c-.67-.12-1.42-.24-2.25-.33l2.25,.33Z"/><path class="c" d="M1003.75,433.81l-9.2-5.84c.8,4.67-2.94,7.78,2.34,8.38,.88,.1,1.66,.23,2.36,.35l2.92,.43c1.32,.01,1.8-.68,1.58-3.32Z"/><path class="c" d="M994.35,407.51l-4.03-8.01-2.44,.6c-4.13,4.87-9.65,5.45-8.66,8.57,.99,3.11,3.73,4.87,7.46,4.48l8.66,2.53c3.73-1.55,0-2.53-.99-8.18Z"/><path class="c" d="M986.69,413.16l-.99,.05c.3,0,.65-.02,.99-.05Z"/><path class="c" d="M750.77,117.47h.01c.08,.01,.16,.02,.24,.04-.09-.02-.17-.04-.26-.04Z"/><path class="c" d="M665.12,440.1h-.17c.1,.01,.15,.01,.25,0,.15,0,.35-.01,.5-.02,.2-.02,.4-.03,.55-.05,.15-.02,.25-.03,.35-.05,.05,0,.05,0,.1-.01,0,0,.01,0,.02,0h-.02c-.57,.09-1.08,.12-1.57,.13Z"/><path class="c" d="M668.43,409.66c.25,.19,.53,.41,.85,.67h.02c-.33-.25-.61-.48-.87-.67Z"/><path class="c" d="M769.62,427.89c-.2-3.7,8.46-9.93,9.05-13.45l-26.12,2.53c-8.67,1.48-12.66,3.24-17.07,3.23h0s-.04,0-.06,0h.05l-6.71-1.28c-8.46-2.93-24.38-5.26-28.71-7.21l-12.54-.97-8.06,5.65-10.17-6.05c1.53,1.24,3.95,3.25,8.48,5.32-4.56-2.07-6.99-4.09-8.51-5.34l-2.09-1.24c-.61,0-1.15,.61-2.04,2.06-3.14,5.06-.99,9.15-4.73,11.3-3.73,2.14-8.86,3.9-5.12,8.18,3.46,3.97,3.72,9.6,9.82,9.49l1.57-.13c.1-.01,.19-.02,.29-.04l.21-.03c.22-.03,.44-.06,.67-.09-.29,.04-.59,.08-.88,.12h-.09s-.1,.03-.15,.03h-.03l6.06-.45c-.08,0-.15,0-.23,0h.23c5.6,0,10.77,1.12,13.37,2.98,3.53,2.53,9.25,5.84,17.51,9.54,8.21,3.71,26.86,5.65,28.66,11.89,1.74,6.23-.99,8.57,5.32,10.52,6.27,1.95,16.67,1.75,23.13,6.24,1.15,.79,1.94,1.11,2.49,1.1l1.27-4.46c.03-1.63,.13-3.42,.8-4.84-.66,1.41-.76,3.18-.79,4.8l1.75-6.16c3.93-3.7,9.05-2.14,7.66-6.23-1.39-4.1-13.93-9.16-11.79-16.18,2.14-7.01,7.66-17.15,7.46-20.85Zm-99.54,11.72c.06,0,.13-.01,.19-.01,.09,0,.18,0,.27-.01-.15,0-.3,.02-.46,.03Zm1.13-.06c.33-.01,.65-.02,.95-.03,.07,0,.14,0,.21,0-.39,0-.78,.01-1.17,.03Z"/><path class="c" d="M314.55,319.89h-.08c.05,0,.1,0,.16,.01h-.07Z"/><path class="c" d="M733.99,511.54s.04,0,.06,0h.1s-.11,0-.16,0Z"/><path class="c" d="M764.15,481.2c.39-.79,.36-2.26,.39-3.89v.03c-.04,1.62,0,3.08-.39,3.86Z"/><path class="c" d="M667.18,409.08h0s.02,0,.03,0c-.01,0-.02,0-.03,0Z"/><path class="c" d="M763.28,481.79s-.02,0-.03,0h0s.02,0,.03,0Z"/><path class="c" d="M763.01,135.4c.8-4.68-7.86-11.69-10.05-15.78l-2.18-2.13c-1.09-.02-1.6,2.01-.36,5.25l11.74,13.67c.43,.01,.73-.29,.85-1Z"/><path class="c" d="M1264.05,305.65s-.05-.04-.07-.05c.05,.04,.1,.08,.15,.13h0s-.07-.05-.09-.07Z"/><path class="c" d="M1289.05,305.78s-.05,0-.07,.01h.07Z"/><path class="c" d="M1289.46,305.73s-.05,0-.07,0h.07Z"/><path class="c" d="M1352.36,291.18c-.3,0-.6-.01-.89-.01,.53,0,1.06,0,1.58,.02-.23,0-.46-.01-.69-.01Z"/><path class="c" d="M1289.86,305.72s-.09,0-.13,0c.03,0,.07,0,.1,0h.04Z"/><path class="c" d="M1290.12,305.72c-.09,0-.18,0-.26,0,.07,0,.15,0,.23,0h.04Z"/><path class="c" d="M1270.62,309.1h0Z"/><path class="c" d="M1289.33,305.74s-.1,.01-.15,.01c0,0-.05,0-.1,.01,0,0-.02,0-.03,0,.09-.02,.21-.03,.34-.04-.03,0-.06,0-.06,0Z"/><path class="c" d="M1289.52,305.73h-.06c.08,0,.17,0,.26,0-.07,0-.13,0-.2,0Z"/><path class="c" d="M1361.37,291.84c.34,.04,.69,.08,1.04,.12,.29,.03,.58,.07,.88,.1-.76-.09-1.56-.19-2.4-.28,.16,.02,.32,.04,.48,.06Z"/><path class="c" d="M1363.29,292.07c.13,.02,.26,.03,.39,.05-.07,0-.15-.02-.22-.03l-.17-.02Z"/><path class="c" d="M1363.68,292.11c.17,.02,.35,.04,.52,.06h.06c-.19-.02-.39-.04-.58-.06Z"/><path class="c" d="M1359.13,291.6s.09,0,.14,.01c-.23-.02-.45-.05-.69-.07,.19,.02,.38,.04,.55,.06Z"/><path class="c" d="M1359.27,291.62c.55,.06,1.1,.11,1.62,.17-.2-.02-.4-.04-.62-.07-.31-.03-.65-.07-1-.1Z"/><path class="c" d="M17.78,479.02c6.12,.1,11.39,1.66,18.41,2.15l12.54-7.41c5.02-2.53,6.67,5.17,9.25,4.97,2.54-.2,7.06-7.31,10.6-12.96,3.53-5.65,6.22-15.93,10.45-17.39,4.23-1.46,3.33-.39,8.76-1.65,5.37-1.27,10.1-2.73,16.67-4.29,6.62-1.55,13.38-.59,14.38-2.72,.95-2.14-5.62-5.36-6.72-6.82-1.04-1.47,.4-2.34,2.99-4.39,2.54-2.04,5.72-17.1,7.11-20.99,1.34-3.89,9.2-9.35,16.27-12.66,7.11-3.31,16.92-5.65,18.31-7.79,1.34-2.15-.2-2.53-5.32-4.68-5.12-2.14-6.67-6.82-8.86-12.66-2.14-5.85-9.7-13.15-9.1-17.63,.6-4.49,4.48-13.45,7.46-19.29,2.94-5.85,17.46-20.26,22.99-30.01,5.47-9.73,18.56-25.62,20.1-29.13,1.59-3.51,14.92-3.7,25.72-5.85,10.85-2.14,13.38-6.43,22.79-9.94,9.45-3.5,9.45-7.01,16.52-10.32,7.07-3.31,22.19-9.35,25.32-14.22,3.18-4.87-.5-11.01-1.24-14.33-.8-3.31,7.26-5.45,8.81-7.4,.7-.85,.05-2.37-1.19-4.02h0l-3.23-3.26,.2-.04s0-.01,.05-.01c0,0,0,0,.05,0h-.05v-.02s-.05-.04-.05-.05c-.05-.05-.1-.1-.15-.15-.2-.16-.35-.31-.5-.46-.2-.17-.4-.35-.55-.52-.2-.17-.4-.33-.6-.49-.15-.14-.3-.29-.5-.43-.15-.15-.35-.3-.55-.46h0c-3.13-2.54-1.39-5.27-3.73-9.94-2.34-4.67-5.47-7.01-2.54-10.13,2.93-3.11,3.73-10.92,4.88-12.86,1.19-1.95,16.52-8.38,24.38-10.32,6.84-1.7,11.15-8.1,14.74-8.08h-.02s.03,0,.07,0c.02,0,.03,0,.05,0,.04,0,.09,0,.13,0,.06,0,.13,.01,.2,.02-.11-.02-.22-.03-.33-.03h-.05s-.04,0-.06,0l1.52,.46s-.01-.02-.03-.03c-.07-.04-.14-.08-.2-.11,.06,.03,.12,.06,.18,.09,0,0,.01,.01,.02,.02,.03,.02,.05,.03,.08,.04l-.05-.02h0s.05,.02,.05,.02c0,.01,.05,.02,.05,.03,.05,.03,.1,.07,.15,.11,.25,.15,.45,.29,.7,.43,.15,.1,.3,.19,.45,.29,.2,.09,.35,.19,.5,.28,.35,.21,.75,.41,1.1,.59,.15,.08,.35,.15,.5,.23,.15,.07,.3,.13,.5,.2,.1,.05,.25,.09,.35,.14,.15,.05,.25,.08,.4,.12,.15,.04,.25,.08,.4,.11,.15,.04,.3,.07,.45,.1,.5,.11,.99,.19,1.49,.26,.2,.03,.45,.05,.7,.07,.2,.02,.45,.04,.7,.05,.3,.02,.6,.03,.9,.05,.35,.01,.65,.02,.99,.03,.3,0,.6,0,.9,.01,.4,0,.8,0,1.14,0,7.11,0,4.68-5.11,9.8-5.11s1.94,5.46,6.87,7.61c.65,.27,1.14,.39,1.54,.39h.05s.1,0,.15-.01c.1,0,.15-.02,.25-.05,.05-.01,.1-.02,.15-.04,.05-.02,.1-.04,.1-.06,.1-.03,.15-.06,.2-.1,0-.03,.05-.05,.1-.08,0-.02,.05-.04,.05-.06,0-.02,.05-.04,.05-.05,0-.02,0-.03,.05-.04,.05-.09,.1-.2,.2-.31v-.05s.05-.05,.05-.07c0-.03,0-.06,.05-.1,0-.04,0-.08,.05-.13,0-.06,.05-.11,.05-.17,0-.07,.05-.15,.05-.22,.05-.1,.05-.2,.05-.3,.05-.13,.05-.26,.1-.39,0-.09,0-.18,.05-.27v-.29c0-.11,.05-.23,.05-.34,0-.13,0-.26,.05-.39,0-.18,0-.37,.05-.56,0-.16,0-.31,.05-.46,0-.12,0-.24,.05-.36,0-.11,0-.22,.05-.34,0-.11,0-.21,.05-.32,0-.1,.05-.2,.05-.3,.05-.12,.1-.24,.15-.36,0-.11,.05-.22,.1-.32,.1-.13,.15-.26,.25-.38,0-.02,.05-.03,.05-.04,0-.02,.05-.04,.05-.06,.05-.04,.1-.09,.15-.13,0-.02,0-.03,.05-.04v-.02s0-.01,.05-.02c0-.03,.05-.06,.1-.09,.05-.02,.05-.04,.1-.06,.05-.02,.05-.03,.1-.04,0,0,0-.02,.05-.03,0-.01,0-.02,.05-.03,0,0,0-.01,.05-.02,.05-.03,.15-.06,.25-.07h.05c1.44,0,1.64,4.09,2.34,8.75,.36,2.47,1.28,3.13,2.53,3.13l2.16-.39c.14-.04,.28-.07,.43-.11-.14,.04-.28,.07-.42,.11l3.36-.6c3.73,0,3.33,1.95,3.93,7.21l12.94,.2c5.72,0,5.72,3.12,9.05,7.01l3.52,1.33c4.44,.01,11.19-3.28,16.53-3.28,7.07,0,6.47-6.04,10.4-8.58,3.93-2.53,8.26-7.4,11.39-11.49,.78-1.03,1.47-1.64,2.11-2-.64,.36-1.33,.98-2.11,2l7.61-1.93s-.04,0-.05,0c.16,0,.33,0,.5,0,3.33-.19,4.68-4.1,6.87-5.26h0l11.05-4.56c10.2-4.1,24.23-9.72,28.16-11.71,6.07-3.12,12.14-14.42,16.07-18.32,3.93-3.89,10.05,.2,17.71,1.56,7.61,1.37,12.34,1.56,20.4,5.26,8.06,3.71,25.72,8.97,29.05,14.23,3.38,5.27,2.79,10.52,3.53,15.59,.8,5.06,6.62,25.82,7.41,30.68l6.52,2.96h-.25c-.2,0-.35,.01-.55,.02-.3,.01-.6,.03-.85,.06-.15,0-.25,.02-.4,.03-.1,0-.2,.01-.35,.02-.2,.02-.45,.02-.7,.03h4.78c3.53,.79,3.33,1.77,5.12,5.86,1.79,4.09,11.79,11.1,13.93,14.23,2.19,3.11-1.34,1.95-.8,7.41l14.13,1.32c-.15,0-.3,0-.45,.01-.1,0-.2,0-.35,.02-.1,0-.25,.02-.35,.03-.15,.02-.3,.03-.4,.04-.15,.02-.3,.04-.45,.05-.15,.02-.3,.04-.45,.06-.3,.04-.6,.09-.9,.14-.4,.06-.75,.12-1.09,.18-.55,.09-1.04,.17-1.54,.26-.4,.06-.8,.13-1.19,.18h-.04l8.79-.73c3.53,1.36,9.35,8.08,11.69,11.79,2.39,3.7,20.85,15.39,24.78,20.07,3.93,4.67,22.99,15.98,26.52,19.87l24.53,1.8h-.55c-.55,0-1.09,.01-1.64,.02-.6,.02-1.24,.03-1.84,.05-1.09,.03-2.14,.07-3.23,.11-.6,.02-1.19,.04-1.74,.06-.45,.02-.9,.03-1.34,.05-.45,.01-.9,.03-1.29,.03-.24,0-.47,.01-.7,.01l16.86-.19c10.2,.78,6.07,8.38,10,13.64,3.93,5.27,10.7,3.99,14.23,7.89,3.58,3.91-3.33,6.24-3.33,9.36l19.05-3.71,10.6,11.69c3.33,6.62-3.33,5.46-3.93,10.13-.55,4.67,11.99,5.84,17.51,9.93l14.93,.58c7.26,1.17,6.67,11.69,9.2,20.85,2.59,9.16,7.76,25.72,9.05,29.22,1.29,3.51,3.43,5.46,3.63,8.38,.2,2.92-8.66,3.81-12.09,6.72-3.43,2.92,2.74,5.17,2.29,7.89-.5,2.73-5.92,5.75-7.56,7.79-1.69,2.05-2.39,11.6-2.49,14.33-.1,2.73,1.19,2.04,5.22,2.53l10.7-1.16c3.13-2.34,3.53-5.56,6.17-8.39,2.69-2.82,11.79-10.13,12.49-12.18,.7-2.04-1.39-9.2-.45-13.68,.99-4.48,4.33-6.24,7.66-8.38,3.33-2.15,6.86,.39,10.25,.39s4.88-.77,6.07-3.5c1.19-2.73,0-10.32-.6-15-.6-4.67-1.74-6.82-5.67-11.1-3.93-4.28-14.38-3.51-17.91-9.55-3.53-6.04,2.29-17.83,2.69-20.55,.35-2.72,10.2-15.59,12.74-17.34,2.54-1.76,7.66-2.53,11.99-2.14,4.33,.39,.4,2.73,.4,6.23s16.52,4.29,21.19,5.65c4.73,1.37,7.66,12.48,9.25,15l14.73,6.24c2.34-.77,6.47-11.49,6.27-14.61-.2-3.11-12.34-16.17-14.93-18.7-2.54-2.53-22.39-13.44-28.46-17.34-6.12-3.9-12.19-5.45-18.46-7.21-6.32-1.76-26.82-12.96-32.74-16.46-5.87-3.51-5.67-6.43-9-11.88-3.33-5.46,6.27-4.68,8.06-6.82,1.74-2.14-.4-6.23-3.53-6.43-.93-.06-2.43-.08-4.25-.08l-16,.28s-.08,0-.13,0c-.11,0-.19,0-.27,0-.25,0-.5,0-.75,.01h-.2c.4,0,.8,0,1.21-.02h.03l-1.43,.02s.06,0,.09,0h-.09c-6.67,0-11.74-1.09-20.86-2.36-9.8-1.37-12.39-7.4-15.32-9.75-2.93-2.33-17.01-17.82-21.69-21.33-4.73-3.51-8.66-12.27-11.99-19.87-3.33-7.6-2.74-11.88-5.72-21.24-2.93-9.35-6.27-6.43-14.33-12.66-8.06-6.23-15.32-8.57-18.86-10.32-3.53-1.76-14.83-12.58-19.95-17.06-5.08-4.48-.15-5.26-2.74-10.52-2.54-5.27-6.67-12.08-7.66-16.17-.39-1.69,.63-2.21,2.12-2.2h-.03c.06,0,.11,0,.17,0-.05,0-.09,0-.14,0l6.48,1.41s-.01,0-.02,0h.04l.04,.02s0,0,.05,0c0,0,.05,0,.05,.01,.1,.01,.15,.02,.2,.03,.05,0,.1,0,.15,0,2.09,0,3.28-3.57,5.82-6.29,2.79-2.92-.95-5.65-5.67-11.3-4.73-5.66-7.46-5.36-9.75-7.41-2.24-2.04,.3-3.9,3.43-5.46,3.18-1.56,3.38-8.08,7.36-10.03,4.08-1.95,.1,6.34,2.49,7.21l11.19-5.35c6.67-3.12,12.69-3.61,14.83-6.23,2.14-2.63-.9-4.68-.8-7.02,.02-.43,.27-.6,.67-.59h-.02s.08,0,.13,0c-.04,0-.07,0-.11,0l7.24,3.94c-.53-.34-1.07-.69-1.62-1.05-.12-.07-.24-.15-.37-.22-.11-.07-.21-.15-.32-.22,.23,.15,.46,.29,.7,.44,.25,.15,.49,.3,.72,.45,.3,.2,.6,.39,.9,.58h0l3.48,1.84h0s.1,.02,.15,.03c.1,0,.15,.02,.25,.03,.05,0,.15,.01,.2,.01,.05,0,.1,0,.15,0s.1,0,.15,0c.1,0,.15,0,.25-.02,.1,0,.15-.02,.25-.04,.1-.01,.15-.03,.25-.06,.2-.04,.35-.1,.5-.16,.15-.07,.35-.14,.5-.23,.15-.08,.35-.18,.5-.28,.1-.05,.2-.11,.3-.17,.1-.08,.25-.16,.35-.25,.15-.07,.25-.16,.35-.24,.15-.08,.25-.17,.4-.26,.1-.09,.25-.17,.35-.26,.15-.09,.25-.18,.4-.27,.15-.09,.3-.18,.4-.27,.15-.09,.3-.18,.45-.27,.15-.1,.35-.2,.5-.29,.1-.06,.25-.12,.35-.18l.99-.45,4.63,7.38v.02l-3.23,9.64c.2,1.37,1.49,1.43,1.24,4.18-.3,3.7-.05,8.52,1.05,12.32l10.4,15c2.79-.1,2.79-4.87,3.53-7.21,.8-2.33,5.12-1.66,6.92-2.14,1.74-.49,.85-2.64,.75-4.29-.1-1.66,2.89-3.41,3.53-5.75,.7-2.33,1.49-5.84,3.28-6.72,.12-.06,.28-.08,.46-.08h-.01c.14,0,.29,.01,.46,.05-.16-.03-.31-.05-.45-.05l11.68,6.51c-1.78-1.19-8.4-5.89-11.2-6.46,2.81,.57,9.42,5.27,11.2,6.46,2.09,1.36,7.96,5.45,10.35,8.38,2.34,2.92,3.48,21.97,4.53,23.92,1.09,1.95,10.8,7.99,16.12,10.62,5.32,2.63,8.16,5.65,8.66,9.45,.21,1.61-.14,2.17-.86,2.16h.01s-.02,0-.03,0c0,0,.01,0,.02,0l-4.57-1.96c1.69,.79,3.2,1.7,4.18,1.92-1-.22-2.49-1.13-4.18-1.92l-14.13-4.38c-2.44,1.95,12.29,14.22,16.22,16.76,3.93,2.53,11.89,6.48,17.02,9.6,5.12,3.11,1.39,4.48,2.93,8.57l18.39-.97s.05,0,.07,0c.1-.01,.2-.02,.25-.02,.2,0,.35-.01,.5-.01l-.82,.04c-.05,0-.11,.01-.18,.02-.2,.02-.35,.04-.55,.07-.2,.03-.4,.06-.6,.09-.25,.03-.45,.07-.7,.11-.2,.04-.45,.08-.65,.13-.25,.05-.5,.09-.75,.14-.25,.05-.5,.11-.75,.16-.3,.06-.6,.12-.85,.18-.35,.07-.65,.13-.95,.2-.12,.03-.23,.05-.35,.08l7.76-1.19c3.73,.59,8.46,4.49,5.92,6.83-2.59,2.34-5.92,.39-7.11,2.92-.97,2.15,5.64,3.45,9.83,3.44l1.96-.13s-.07,0-.1,.01c.05,0,.05,0,.1,0t.05-.01s.05,0,.05-.01c.1-.02,.15-.03,.25-.04,.15-.02,.3-.04,.45-.06,.15-.02,.3-.04,.45-.06,.25-.03,.5-.05,.75-.07,.25-.03,.55-.04,.8-.06,.25-.02,.45-.03,.7-.03,.2-.01,.45-.02,.7-.02h.25c2.99,0,5.87,.54,6.37,2.31,.8,2.73-3.88,1.95-5.27,5.26l11.79,1.36c2.54-.19,10.6,1.96,12.94,4.88l-7.26,1.56c-5.67,0-10.8-.78-12.19,2.72l9.5,1.96h-.25c-.08,0-.15,0-.23,0,1.26-.01,2.49,.02,3.56,.18,5.12,.77,5.32,4.1,6.67,5.65,1.39,1.56,21.84,6.23,27.91,7.4,2.64,.51,5.82,.76,9.25,1.23h0l13.18,3.42c.45,.2,.9,.4,1.34,.61,8.61,4.29-1.99,5.07-.99,9.16,.99,4.09,19.15,15.1,22.49,18.41,.75,.76,1.59,1.29,2.49,1.7h0c.05-.15,.1-.29,.15-.43,0-.14,.05-.27,.1-.4l3.48,2.04c1.89,.53,3.78,1.09,5.37,2.54,3.33,3.11,2.93,7.6,1.94,12.66-.28,1.58-.65,2.15-1.11,2.21,.45-.07,.82-.65,1.11-2.21l-5.17,.18s.05,0,.1,0c.03,0,.06,0,.08,0-.16-.01-.32-.01-.48,.01-2.74,.39-1.39,2.53-2.74,5.44-1.39,2.93,1.34,4.49,4.28,10.53,2.98,6.03-.95,3.7-2.14,8.18-1.19,4.48,.4,2.92,.6,7.21,.2,4.28-3.04,4.97-3.83,10.61-.8,5.65,5.87,9.74,4.73,12.08l-2.34,1c.1,0,.15,0,.2,0,.05,0,.15,0,.2,0,.05,0,.15,0,.2,0h.2l-4.18,1.71c-3.13,3.31,3.53,5.84,8.86,9.74,5.27,3.89,13.33,6.82,14.33,11.49,.99,4.68,.6,3.51-3.33,5.46-1.1,.53-1.99,.71-2.79,.71h-.1s-.1,0-.2,0c-.1,0-.25-.02-.4-.03-.1-.01-.25-.03-.35-.05-.1-.02-.25-.05-.35-.07-.35-.08-.7-.17-.99-.27-.15-.04-.3-.08-.45-.12-.1-.04-.25-.07-.35-.11-.2-.05-.4-.09-.55-.13-.2-.04-.4-.08-.55-.1-.1-.01-.2-.03-.3-.04-.1-.01-.2-.02-.3-.03-.1-.01-.2-.02-.35-.02h-.2c-.3,0-.65,.03-1.04,.08-3.73,.58,.8,2.53,3.53,6.82,2.55,3.99,11.62,14.92,13.49,14.97l.29-.16c.75-1.76-3.18-8.57-3.73-11.11-.6-2.54,.75-3.11,4.28-3.11,1.44,0,2.34,.61,2.94,1.64,2.09-.5,4.43-1.11,4.93-1.47,.15-.08,.1-.11,.05-.11-.1,0-.2,.02-.3,.02h-.05s-.05,0-.05,0h-.05v-.02s-.05,0-.05,0h0s0-.02-.05-.03h0v-.03h0v-.08s-.05-.08-.05-.11c-.05-.13-.1-.26-.1-.39-.05-.07-.05-.15-.1-.24,0-.08,0-.15-.05-.23v-.24c-.05-.08-.05-.15-.05-.23v-.42c0-.12,.05-.25,.05-.37,.05-.06,.05-.13,.05-.19,.05-.03,.05-.07,.05-.1l2.93,5.95h0c-.8,.57-3.58,1.37-6.02,1.98,.2,1,.3,2.1,.45,3.24,.6,4.68,13.28,15.1,16.22,20.95l4.12,3.07c2.32,0,4.58-1.96,5.28-3.27,1.19-2.14,4.92-2.14,9.25-1.55,4.33,.58,4.93,2.53,5.12,6.81,.16,3.47-1.98,5.91-4.38,5.9h.01s-.02,0-.03,0c0,0,.01,0,.02,0l-1.73-.44c-2.94-1.55-6.87-2.15-8.81-.39-1.99,1.75,6.27,6.82,9.6,9.74,3.34,2.92,3.93,8.96,6.67,8.96s8.85-1.36,11.99,1.37c2.03,1.77,6.21,2.14,10.46,2.13l6.65-.19s.07,0,.11,0c.08,0,.16,0,.24,0,.22,0,.46,0,.69,0-.32,0-.63,0-.93,.02h-.01l1.13-.02s-.03,0-.05,0c.04,0,.09,0,.12,0h-.08c5.84,0,15.13,1.04,18.98,1.58,4.13,.59,15.72,1.17,21.05,2.35,5.27,1.16,12.14,5.84,12.53,8.38l-.59,5.84c2.39-.97,9.65-1.95,14.72-1.95s10.25,10.72,15.73,16.57l2.78-8.18c0-6.63,1.15-13.05-3.18-16.56-4.28-3.5-7.61-1.16-13.34-4.88-5.72-3.7-.49-3.4-3.83-5.55-3.33-2.14-6.86-1.94-10.79-3.89-3.93-1.95-3.93-5.27-6.87-8.77-2.93-3.5-8.66-2.53-13.58-2.92-4.88-.39-7.66-2.14-8.06-5.45-.35-3.32,8.46-3.12,12.79-4.1,4.32-.98,4.12-2.54,3.13-4.67-1-2.15-3.53-12.47-3.13-13.83,.39-1.36,7.46-.2,11.19,3.31,3.73,3.51-.2,2.53-.2,7.6l10.2-3.12c2.19-2.34-7.76-10.42-12.84-14.9-5.12-4.48-6.46-7.8-8.26-15-1.74-7.21-6.46-6.82-9.4-15-2.98-8.18-.4-12.48,1.74-16.76,2.14-4.29,7.67-8.38,10.6-9.93,.31-.17,.57-.22,.8-.22v-.02s.05,.01,.08,.02c-.03,0-.06,0-.08,0l-1.2,9.77c-2.34,4.67,1,3.7,4.93,7.4,3.93,3.7,7.06,4.48,8.46,8.57,1.34,4.1,0,7.41,0,10.33s8.65,2.54,12.93,2.92l4.33-2.34c-1.54-1.55-10-8.57-10.8-10.72l7.86-.59c3.93,.4,10.2,7.01,13.74,10.14l7.06-1.96c1.99-2.14-6.47-3.31-11-6.43-4.47-3.12-5.07-6.82-1.14-8.96,3.93-2.14,6.27,2.33,9.8,4.28l13.19,1.94c3.13-.97-10.25-7.79-16.72-11.69-6.47-3.89-5.52-6.82-7.46-9.16-1.94-2.34-1.4-7.21,4.13-7.01h.55c4.98,.05,6.09-1.89,16.51-5.46,5.65-1.94,7.62-3.26,9.85-3.24h.04s-.02,0-.04,0l9.7,3.92-.28-.14h-.02l-.03-.03c-1.06-.54-2-1.02-2.84-1.44-.06-.03-.11-.05-.16-.08-.05-.03-.1-.05-.15-.08-.83-.41-1.57-.76-2.22-1.05-.04-.02-.08-.03-.12-.05l-.05-.02c-.86-.37-1.58-.64-2.23-.8,.03,0,.06,.01,.09,.02,.1,.03,.25,.06,.35,.1,.15,.04,.25,.08,.35,.12,.2,.05,.35,.11,.5,.18,.15,.06,.35,.13,.49,.2,.18,.06,.31,.13,.45,.19,.06,.02,.11,.05,.17,.07,.14,.06,.27,.12,.43,.18,.15,.07,.3,.14,.45,.22,.2,.08,.35,.15,.49,.23,.29,.14,.58,.28,.85,.42,.1,.05,.21,.1,.32,.16,.33,.15,.64,.31,.93,.47,.4,.19,.75,.38,1.15,.57,.24,.13,.52,.27,.76,.4l.05,.03c.08,.04,.14,.07,.23,.11,0,.02,.05,.03,.1,.04,0,0,0,0,.01,.01l4.8,1.59c4.52,.01,1.29-7.98,5.54-10.19,.6-.29,1.2-.49,1.89-.61l8.56,1.23,31.89,15.56,3.13,2.38c.05,.02,.1,.05,.15,.07,.2,.09,.45,.17,.65,.25,.15,.04,.25,.09,.4,.13,.15,.04,.3,.08,.4,.12,.19,.04,.34,.08,.49,.11,.15,.04,.3,.07,.5,.11,.15,.03,.3,.06,.5,.09,.15,.03,.35,.06,.55,.09,.19,.03,.39,.06,.59,.08,.25,.03,.45,.05,.65,.07,.25,.02,.45,.04,.7,.05,.24,.02,.44,.03,.69,.04,.45,.03,.95,.04,1.4,.05,.39,.01,.84,.02,1.29,.02h1.04c.45,0,.85,0,1.3-.01,.3,0,.59-.01,.89-.02,.3-.01,.6-.01,.85-.02,.25,0,.55-.01,.79-.02,.25,0,.5-.01,.75-.02,.2,0,.45,0,.65,0,.25,0,.49,0,.74,0,.2,0,.45,0,.7,0,.1,0,.2,0,.3,0,.1,0,.15,.01,.25,.02,.15,0,.3,.02,.4,.03,.05,0,.14,.01,.19,.02,.05,.01,.1,.01,.15,.02,.1,0,.15,.02,.2,.03,.05,.01,.1,.02,.15,.03,0,0,.05,.01,.05,.02,.05,.02,.1,.02,.15,.04,.05,.01,.05,.03,.1,.05,0,.01,.05,.03,.05,.04,.05,.01,.05,.02,.05,.04,.05,.03,.05,.04,.1,.07v.28c-.05,0-.05,.01-.05,.01v.06s-.05,.04-.05,.05c0,.03-.05,.04-.05,.07,0,.03-.05,.06-.05,.09-.05,.03-.1,.07-.1,.1-.05,.04-.1,.09-.15,.13-.05,.05-.1,.1-.15,.14-.05,.06-.15,.12-.2,.18-.1,.07-.2,.14-.3,.21-.09,.09-.24,.17-.34,.26-.2,.11-.35,.22-.5,.32-.2,.13-.45,.26-.65,.38-.15,.08-.25,.16-.4,.25-.14,.08-.29,.16-.44,.25-.2,.13-.45,.25-.7,.38-.2,.13-.45,.26-.7,.38-.25,.14-.49,.27-.74,.4-.3,.14-.55,.28-.8,.41-.35,.18-.7,.36-1.09,.53-.55,.28-1.1,.56-1.64,.84-.35,.18-.75,.36-1.1,.53-.3,.16-.65,.33-.94,.49-.25,.11-.45,.23-.7,.34-.2,.11-.4,.22-.6,.33-.2,.1-.4,.2-.6,.31-.14,.1-.34,.19-.49,.29-.15,.07-.25,.14-.4,.22-.05,.03-.1,.07-.15,.1-.05,.03-.1,.07-.15,.1-.1,.05-.15,.1-.25,.15,0,.02-.05,.03-.05,.05,0,0-.05,.02-.05,.02v.03s-.1,.06-.15,.1c-.05,.06-.15,.14-.2,.21-.05,.07-.14,.15-.19,.23-.1,.14-.2,.28-.25,.42-.05,.08-.1,.17-.15,.26-.05,.09-.05,.18-.1,.28-.05,.11-.1,.22-.1,.33-.05,.12-.1,.24-.1,.36-.05,.13-.05,.25-.1,.38,0,.13-.05,.27-.05,.41,0,.21-.05,.41-.05,.62v.66c0,.23,0,.46,.05,.7,0,.24,.05,.47,.05,.71,.05,.24,.1,.47,.15,.7,.05,.22,.15,.45,.2,.67,.05,.2,.15,.4,.2,.6,.1,.19,.15,.38,.25,.55,.09,.15,.14,.3,.24,.44,.05,.13,.15,.26,.25,.39,.1,.12,.15,.23,.25,.34,.1,.1,.15,.2,.25,.29,.15,.12,.25,.25,.4,.36,.05,.02,.05,.05,.1,.08,0,0,.05,.01,.05,.02h0l.77,.21c4.32,.07,19.94-10.91,26.14-13.45,6.67-2.72,10.6-4.28,15.53-9.54,4.92-5.26,14.22-12.17,16.02-14.72,1.74-2.53,15.87-.97,23.13-.78l18.86,3.12c3.58-1.75-1.35-3.31,.59-6.83,1.99-3.5,8.86-4.67,10.8-7.79,1.99-3.11-3.33-1.36-9.6-2.73-6.27-1.36-11.6-5.65-18.86-9.35-7.26-3.7-6.47-5.26-10.2-10.32-2.59-3.45-1.64-6.82-1.09-9.97l1.09,9.96-.99-13.98c-.06,.01-.13,.03-.19,.05l-4.29,1.06c1.37-.36,2.82-.73,4.29-1.06l.19-.05h.05l-.05-.24c-1-4.28-8.56-17.44-12.89-20.16-4.33-2.73-6.07-.2-9.4-3.12-3.34-2.92,12.19-6.24,15.87-9.16,3.78-2.92,2.19-3.51,1.19-8.58-.94-5.06-3.73-7.4-.59-14.61l3.68-4.04-1.89,.78,3.08-2.09-1.19,1.31,5.77-2.39c3.93-1.78,6.27-5.54,8.61-7.8l1.53-1.05h0l-.94,.47c.34-.28,.65-.43,.94-.47h0c1.91-.31,2.96,3.84,6.33,4.17,.1,0,.15,.01,.2,.01,2.43,0,3.48-5.56,4.37-11.55l1.05-6.7h0v-.02c.15-.83,.35-1.65,.5-2.39,1.74-7.79-.9-14.71-.9-19.97s5.52-6.24,6.67-8.18c1.19-1.95-3.14-5.27-1.94-7.99,1.19-2.73,9.8-5.07,9.05-6.23-.79-1.17-12.59,0-7.51-5.66,5.12-5.65,2.59-10.71,3.93-14.41l10.45,.77c3.73,1.17,2.34,2.92-.6,7.4l1.99,2.21c3.66,.01,10.97-1.43,18.81-1.43,12.58,0,.59-10.72-.2-13.83-.28-1.19-.19-2.76,.02-4.63l-.07,.57h0v-.09c.03-.22,.06-.43,.09-.65,.09-.76,.2-1.57,.31-2.43h0v-.03s-.1-.06-.15-.09c-.15-.11-.3-.23-.4-.35h-.05l-.25-5.16c.45,.35,.94,.71,1.39,1.09,.15-1.25,.2-2.56,.2-3.91,0-6.82-.6-5.45-.79-10.52-.2-5.06-.2-2.93-2.74-7.02-2.54-4.09-2.54-5.45,.2-5.06,2.73,.39,5.87,4.09,6.07,7.99l6.32-4.87,7.56-2.74h-.35c-.09,0-.21,0-.34,0h-.15s.06,0,.09,0h.06c1.26,.02,2.65,.02,4.32-.37,4.88-1.17,8.06-4.67,9.6-7.99,1.59-3.31-3.33-7.41-5.12-10.92-1.74-3.5-2.94-5.45-1.34-8.18l6.96,5.75,5.67-1.75c1.38-1.7,6.15-7.07,8.81-10.11H71.6c.08,.14,.16,.28,.21,.41,1.09,2.72,6.22,3.11,13.28,5.75,7.06,2.63,13.03,3.02,15.42,4.96,2.34,1.95-1.29,5.36-3.58,8.77-2.24,3.41-.45,5.46,.6,10.33,1.09,4.87,3.58,3.56,3.38,7.74-.2,4.19-3.73,1.76-4.68,4.19-.99,2.43,11.39,8.18,13.33,10.52,1.99,2.33,7.36,6.04,9.45,9.35,2.04,3.32,1.64,5.06,2.74,7.4,1.09,2.33,3.93,3.02,4.43,6.04,.5,3.02-3.43,5.46-4.73,6.24l-5.12-12.09c-1.24-4.67-4.03-7.6-5.97-10.13-1.78-2.27-7.49-6.35-9.85-6.29l-.7,.19c-1.69,1.27-.5,5.36,.6,10.53,1.04,5.16,1.44,16.37,2.04,22.41,.6,6.04-1.89,6.87-1.89,10.77s-2.98,3.11-7.86,6.62c-4.93,3.51-1,2.92-2.79,17.73-1.74,14.8-5.47,17.34-6.67,27.47-1.19,10.13-3.93,5.06-6.07,7.98h0c-.8,1.08-2.14,1.58-3.72,1.84l3.72-1.83h0s-.05,.02-.09,.03c0,.02-.05,.03-.1,.04-.05,.03-.15,.07-.2,.11-.1,.04-.2,.08-.3,.12-.1,.05-.2,.09-.3,.14-.25,.1-.55,.21-.8,.31-.3,.1-.55,.21-.85,.3-.45,.14-.85,.27-1.29,.39-.45,.12-.9,.23-1.34,.32-.4,.08-.75,.15-1.14,.2-.4,.06-.75,.1-1.14,.14-.1,0-.2,.01-.3,.02-.05,0-.1,.01-.15,.01-1.79,.08-3.68,.19-5.57,.58-5.46,1.17-10.58,2.92-16.84,2.73h.06l.86,.02h-.25c-.15,0-.3,0-.45-.01-.04,0-.09,0-.16,0h-.09s.02,0,.03,0c-.04,0-.09,0-.18,0l-.3-.02c-.4-.02-.8-.05-1.19-.1-.25-.03-.5-.07-.75-.12-.2-.04-.45-.09-.65-.14-.2-.05-.4-.11-.65-.18-.2-.06-.4-.13-.6-.21-.1-.04-.2-.09-.35-.14-.1-.05-.2-.1-.3-.15-.25-.1-.5-.22-.7-.34-.35-.17-.65-.36-.99-.56-.25-.16-.5-.32-.75-.49-.2-.13-.4-.25-.6-.38-.15-.12-.35-.25-.55-.37-.15-.1-.3-.2-.45-.3-.15-.1-.35-.21-.5-.31-.15-.1-.3-.21-.5-.31-.15-.1-.3-.21-.5-.31-.35-.22-.7-.42-1.04-.63-.4-.22-.8-.44-1.19-.65-.25-.15-.55-.3-.85-.45-.3-.15-.65-.31-.95-.45-.1-.06-.25-.12-.35-.17-.1-.03-.15-.06-.2-.09-.1-.03-.15-.06-.25-.1-.1-.06-.25-.12-.4-.18-.15-.06-.3-.11-.4-.17-.15-.05-.3-.1-.4-.14-.15-.04-.25-.09-.4-.13-.1-.04-.25-.07-.35-.11-.15-.03-.25-.06-.4-.09-.1-.02-.2-.04-.3-.06-.1-.02-.2-.04-.3-.05-.2-.02-.35-.04-.5-.04-.1,0-.15,0-.2,0s-.15,0-.2,0c-.05,0-.15,.01-.25,.02-.1,0-.15,.02-.25,.03-.1,0-.15,.03-.25,.05-.05,.02-.15,.04-.25,.06-.05,.03-.15,.05-.2,.08-.1,.03-.2,.08-.3,.12-.05,.03-.1,.06-.15,.09-.05,.02-.1,.04-.15,.07,0,.02-.05,.03-.05,.05-.2,.13-.4,.28-.6,.43-.05,.02-.05,.05-.1,.08-.05,.04-.1,.08-.15,.11-.05,.05-.1,.11-.15,.16-.1,.07-.15,.15-.25,.22-.05,.07-.15,.14-.2,.21-.1,.07-.15,.14-.25,.21-.1,.13-.25,.26-.4,.38-.15,.13-.25,.26-.4,.39-.15,.13-.3,.26-.45,.38-.15,.13-.3,.25-.5,.38-.1,.1-.25,.2-.4,.3-.15,.09-.3,.19-.45,.28-.15,.09-.3,.19-.45,.27-.15,.09-.3,.18-.5,.26-.15,.09-.35,.18-.5,.26-.2,.08-.4,.16-.6,.24-.4,.16-.8,.29-1.24,.42-.25,.06-.45,.12-.7,.18-.05,.01-.1,.03-.2,.04,0,.01-.05,.02-.1,.02l-.15,.03c-.15,.03-.35,.07-.5,.09-.4,.06-.8,.1-1.14,.13-.2,.02-.4,.02-.6,.02-.05,0-.15,0-.25,0s-.15,0-.25,0-.25,0-.4,0c-.15,0-.25-.02-.4-.02-.1,0-.2-.01-.25-.02-.65-.06-1.29-.16-1.94-.29-.1-.02-.2-.04-.3-.07-.15-.02-.25-.05-.35-.08-.2-.03-.35-.07-.5-.12-.2-.04-.35-.1-.55-.15-.25-.07-.45-.14-.7-.22-.5-.16-1.05-.34-1.54-.53-.5-.2-1.04-.42-1.59-.65-.9-.39-1.84-.81-2.74-1.25-.35-.17-.7-.35-1.04-.52-.35-.16-.7-.32-1-.48-.35-.17-.7-.34-1.04-.51h-.02V479.09c8.28-.12,15.35-.11,17.78-.07ZM651.32,90.08s.06,.02,.09,.02c.1,.03,.2,.05,.3,.08,.02,0,.03,.01,.05,.02,.13,.04,.25,.07,.36,.1-.02,0-.04,0-.06-.01-.05-.02-.1-.03-.2-.05-.03-.01-.07-.02-.1-.04-.14-.04-.29-.08-.44-.13-.1-.02-.18-.05-.26-.07-.25-.07-.5-.14-.75-.21-.5-.14-.99-.28-1.49-.4-.18-.05-.36-.09-.54-.13,1.1,.25,2.18,.57,3.03,.81Zm-3.64-.95s.09,.02,.14,.03c-.09-.02-.18-.04-.27-.05,.04,0,.08,.01,.13,.02Zm-1.59-.22c.2,0,.35,.02,.5,.04h.03c-.2-.02-.4-.04-.6-.05,.02,0,.05,0,.07,0Zm297.94,159.34s-.07-.02-.11-.03c-.02,0-.05,0-.07-.01-.03,0-.06,0-.09-.01-.03,0-.05,0-.08-.01h.02s.04,0,.06,.01c.05,0,.1,.01,.16,.03,.03,0,.05,0,.08,.01,0,0,.01,.01,.03,.01,.01,0,.02,0,.04,.01h-.01s-.01,0-.02-.01Zm.67,.27s-.01-.01-.03-.02c-.04-.02-.07-.04-.11-.05,.03,.01,.05,.02,.08,.03,0,0,.01,.01,.02,.02,.03,.01,.05,.03,.08,.04-.02,0-.03-.02-.05-.02Zm.53,.32s-.09-.06-.14-.09c-.06-.03-.1-.06-.14-.08-.05-.03-.1-.05-.15-.08,0,0-.01-.01-.03-.02,.11,.06,.21,.12,.32,.19,.02,0,.03,.02,.06,.03,.02,.02,.05,.04,.08,.06,.1,.07,.19,.14,.28,.21-.06-.04-.11-.08-.17-.12-.03-.03-.07-.06-.12-.09Zm1.4,1.05c-.1-.04-.15-.09-.19-.14-.1-.05-.15-.11-.25-.16-.05-.05-.1-.11-.2-.17-.07-.06-.15-.13-.24-.19,.31,.24,.61,.48,.88,.66h0Zm.8,.32h-.05s0,0-.05,0c-.05,0-.15-.02-.2-.04-.05-.02-.1-.04-.15-.06-.02,0-.04-.02-.06-.03-.04-.02-.09-.05-.13-.07,.02,0,.03,.01,.04,.02,.03,.02,.06,.04,.09,.05,.19,.1,.38,.15,.55,.14-.01,0-.03,0-.04,0ZM1375.35,33.56s.08,0,.12,0c-.05,0-.1,0-.15,0h.03Zm-.79,.02c-.5,.02-.98,.08-1.46,.19,.48-.11,.97-.17,1.46-.19Zm-52.75,37.05c.2-.33,.4-.65,.6-.98,.15-.28,.35-.55,.55-.83,.15-.26,.35-.51,.5-.77,.19-.25,.39-.5,.59-.75t.05,0c.1,.01,.25,.02,.4,.02h.05c.1,0,.2,0,.35-.02,.1,0,.25-.02,.35-.04,.15-.02,.29-.05,.44-.08,.2-.03,.35-.07,.5-.11,.15-.05,.35-.09,.5-.15,.2-.05,.4-.11,.6-.17,.15-.06,.34-.12,.54-.19,.2-.08,.45-.16,.65-.25,0,.03,.05,.06,.05,.1,.05,.09,.1,.19,.1,.28,.05,.1,.1,.21,.15,.32,0,.13,.05,.26,.1,.39,.05,.14,.05,.29,.1,.43,.05,.15,.05,.32,.1,.47,.05,.17,.05,.34,.1,.5,0,.16,.05,.32,.05,.47,.05,.22,.05,.43,.05,.65h0c-.3,.11-.6,.21-.9,.3l-.6,.18c-.24,.06-.49,.12-.69,.18-.25,.05-.5,.1-.7,.15-.2,.04-.45,.08-.65,.11-.2,.03-.39,.06-.59,.08-.15,.02-.3,.03-.45,.04-.2,.01-.35,.02-.5,.02-.1,0-.15,0-.2,0s-.15,0-.2,0c-.15,0-.34,0-.49-.03-.2-.02-.4-.04-.55-.08-.05,0-.1-.01-.1-.02-.25-.05-.45-.12-.7-.2-.05-.02-.1-.04-.15-.07h0Zm-170.69,207.72c.06,0,.11,.03,.16,.04-.2-.04-.39-.07-.58-.09,.14,.01,.27,.03,.42,.05Zm-.8-.08c.1,0,.2,.01,.25,.01,.03,0,.05,0,.08,0-.12-.01-.24-.02-.36-.02h.04Zm-64.62,17.31c.46-1.79,.62-3.4,.34-4.32,.28,.93,.12,2.53-.34,4.32Zm-210.46-117.43l1.07,.94s.05,.04,.07,.06h0l-.07-.06s-.1-.07-.13-.1c-.15-.11-.25-.21-.4-.32-.15-.11-.25-.22-.4-.34-.05-.05-.1-.11-.15-.17h0Zm-141.54-123.98h0Zm-49.1-15.38s.07,.05,.11,.07c.28,.16,.58,.33,.88,.51h0c.2,.11,.35,.22,.55,.33l.03,.02c.27,.17,.55,.35,.83,.53-.1-.06-.2-.13-.31-.19-.19-.11-.33-.22-.52-.34-.2-.12-.39-.24-.58-.35-.2-.1-.35-.2-.54-.3-.11-.07-.23-.14-.34-.21-.08-.04-.16-.09-.24-.13,.04,.02,.08,.04,.13,.06Zm-1.1-.54s.06,.03,.08,.04c.18,.08,.37,.17,.56,.27,.02,0,.03,.02,.05,.02,0,0,.02,.01,.03,.02-.03-.01-.05-.03-.08-.04-.12-.05-.22-.1-.35-.15-.07-.04-.14-.08-.22-.11-.08-.03-.15-.07-.22-.1,.04,.02,.09,.03,.14,.05Zm-.6-.23s.07,.03,.12,.05c-.07-.03-.15-.05-.22-.07,.03,0,.07,.01,.1,.02Zm-.5-.11s.05,0,.1,.01c.05,0,.1,.02,.1,.02h.03c-.09-.01-.18-.03-.26-.04h.03Zm-227.61,97.86l.2,.02h.05c-.05,0-.05,.01-.05,.02,0,.02,0,.03-.05,.04,0,.04-.05,.09-.1,.14-.05,.09-.1,.19-.2,.29-.05,.09-.1,.19-.15,.28-.05,.04-.05,.07-.1,.11l.4-.89Zm-21.78,14.7c-.58-.09-1.11-.22-1.62-.3,.51,.08,1.04,.21,1.62,.3Zm-119.51,0s.09,.04,.13,.05c-.05-.02-.09-.04-.14-.05h0Zm-.3-.08s.1,.03,.14,.04c-.08-.02-.16-.04-.24-.06,.03,0,.07,.01,.1,.02Z"/><path class="c" d="M1356.23,291.35c-.13,0-.26-.02-.39-.03,.13,0,.26,.02,.39,.03Z"/><path class="c" d="M1356.74,291.39c-.17-.01-.34-.02-.51-.03,.8,.06,1.59,.12,2.35,.19-.2-.02-.4-.04-.6-.06-.39-.03-.84-.07-1.24-.1Z"/><path class="c" d="M1353.95,291.23c-.22-.01-.45-.02-.68-.03,.88,.03,1.73,.07,2.57,.12-.15,0-.3-.02-.44-.03-.5-.03-.95-.05-1.45-.07Z"/><path class="c" d="M1281.27,505.04c-1.55,4.88-5.87,8.97-1.55,11.3l14.53-4.28c3.33-3.32,6.87-4.29,7.27-9.94,.24-3.54-1.38-4.63-3.98-4.61l-5.48,.91c-7.06,3.7-9.2,1.75-10.79,6.62Z"/><path class="c" d="M245.55,346.89s.09-.02,.14-.03c.1-.02,.15-.05,.25-.07,.04-.01,.07-.02,.11-.04h0c-.17,.05-.33,.1-.49,.14Z"/><path class="c" d="M287.53,339.73c-.2-3.51-15.52-1.56-14.93-4.87,.6-3.32,10-7.4,3.33-8.38l-19.05,3.9c-3.93,2.72-10.2,7.79-13.14,9.74-2.98,1.95-4.53,4.68-1.59,6.43,.7,.41,1.34,.56,1.98,.56l1.91-.36,.08-.02c.07-.02,.14-.05,.22-.07,.04-.01,.07-.02,.11-.03-.11,.04-.22,.07-.32,.1-.02,0-.05,.02-.07,.02l6.11-1.16c-.61-.02-1.18,0-1.71,.05,.04,0,.09,0,.12-.01,.2-.02,.45-.03,.65-.04,.15,0,.3,0,.45-.01,.2,0,.35,0,.5,.02,5.12,.2,3.93,3.89,8.66,7.98,3.61,3.13,3.77,5.11,5.85,5.09l2.61-.61c4.92-1.76,2.74-.97,8.26-4.67,5.47-3.7,10.2-10.13,10-13.64Zm-40.91,6.83s.08-.03,.11-.04c.15-.05,.3-.09,.45-.14l.05-.02c-.21,.07-.41,.13-.61,.2Zm1.72-.53c.06-.02,.12-.04,.18-.05,.11-.03,.22-.06,.34-.08-.18,.04-.35,.09-.52,.13Zm1.33-.29c-.05,0-.11,.02-.15,.03-.03,0-.05,0-.07,.01-.19,.04-.38,.07-.57,.11,.05,0,.09-.02,.14-.03,.13-.03,.27-.06,.43-.09,.07-.01,.15-.03,.22-.04,.12-.02,.24-.04,.35-.06,.12-.01,.23-.03,.33-.04-.23,.03-.46,.06-.68,.09Z"/><path class="c" d="M269.27,358.04c-.46,.16-.84,.28-1.2,.38,.36-.1,.75-.21,1.2-.38Z"/><path class="c" d="M1263.51,305.24c-.05-.02-.05-.04-.1-.06,0-.02-.05-.03-.05-.04-.05-.01-.05-.02-.1-.03-.03-.02-.07-.04-.1-.05,.2,.09,.4,.22,.6,.37-.03-.03-.07-.06-.1-.09-.05-.03-.1-.06-.14-.09Z"/><path class="c" d="M245.17,346.98c.13-.03,.26-.06,.39-.1-.1,.03-.21,.05-.31,.08-.02,0-.05,.01-.08,.02Z"/><path class="c" d="M244.45,347.1c.1-.01,.25-.03,.4-.05,.12-.02,.23-.04,.32-.07-.31,.07-.61,.12-.91,.13,.05,0,.1,0,.19,0Z"/><path class="c" d="M244.25,347.11h0Z"/><path class="c" d="M201.15,369.53c1.85-.3,3.31-.46,4.41-.47h.08c-1.12,0-2.59,.16-4.49,.47Z"/><path class="c" d="M244.1,347.11s.09,0,.14,0c-.03,0-.06,0-.1,0h-.04Z"/><path class="c" d="M196.39,382.22h0s-.02,0-.03,0c.01,0,.02,0,.03,0Z"/><path class="c" d="M1221.76,348.49h-.01s-.03,0-.04,0c.02,0,.03,0,.05,0Z"/><path class="c" d="M1220.23,348.05c-.22-.18-.41-.4-.51-.71,.09,.31,.28,.53,.51,.71Z"/><path class="c" d="M1262.91,304.96s0-.01-.05-.01c0,0-.05-.01-.05-.02-.05,0-.1-.01-.1-.02h-.13c.19,0,.38,.05,.57,.13-.07-.03-.14-.06-.24-.09Z"/><path class="c" d="M1263.8,305.46c.07,.05,.12,.09,.18,.14-.08-.06-.15-.12-.23-.18,.02,.01,.03,.03,.05,.04Z"/><path class="c" d="M1297.4,497.52c-.29,0-.59,.02-.9,.05,.31-.03,.61-.05,.9-.05Z"/><path class="c" d="M207.63,372.22c1.18-2.25,.62-3.18-2.07-3.16l-5.89,.73c-4.58,2.54-5.97,2.54-5.57,4.67l2.29,7.76c.38,0,.82-.1,1.35-.35,4.33-2.04,8.16-6.23,9.9-9.64Z"/><path class="c" d="M1297.4,497.52s.09,0,.13,0h.04c-.06,0-.12,0-.18,0Z"/><path class="c" d="M266.87,358.64c-.07,0-.14,0-.21,.01h-.03c.07,0,.16,0,.24-.01Z"/><path class="c" d="M1440,261.68c-3.07,3.36-5.33,6.82-8.24,9.03-1.27,.97-2.66,1.58-4.16,1.95,1.5-.37,2.9-.98,4.16-1.95l-8.96,2.43c-3.45,0-7.28-.47-11.43-.47-8.26,0-18.46-4.67-23.39-4.67-4.92,0-5.32,0-13.93,1.56l-22.24-3.12-9.4,5.65c-1.39,4.87,3.53,5.26,5.72,10.33,2.14,5.06,22.94,2.73,23.73,7.6,.32,1.94-.93,2.52-3.32,2.51h.04s-.07,0-.1,0c.02,0,.04,0,.06,0l-4.28-.34c.44,.05,.86,.1,1.27,.14-.06,0-.12-.01-.18-.02-.3-.03-.65-.07-.95-.1-.06,0-.13-.02-.2-.02l-12.73-1c-12.19,0-16.32,1.75-21.65,6.23-5.27,4.48,6.72,3.7,10.05,5.26,3.34,1.56,0,.98-1.79,3.9l-26.12,.39c-7.6-.17-18.2-1.24-21.88-1.24l-1.1,.07h0s-.05,0-.05,.01c-.05,0-.05,.02-.1,.03-.1,.02-.15,.03-.2,.04-.05,.02-.15,.03-.2,.05-.2,.04-.35,.08-.55,.13-.2,.05-.39,.1-.59,.15-.25,.06-.45,.12-.7,.18-.25,.06-.5,.12-.75,.18-.59,.14-1.14,.28-1.74,.42-.69,.16-1.39,.33-2.09,.48-.59,.14-1.24,.28-1.89,.41-.59,.13-1.19,.25-1.79,.36-.25,.05-.55,.11-.85,.16-.24,.05-.54,.1-.84,.14-.25,.04-.5,.09-.75,.13-.25,.04-.49,.08-.74,.11-.25,.03-.5,.07-.75,.1-.2,.03-.45,.05-.7,.08-.19,.02-.39,.04-.64,.06-.2,.02-.4,.03-.6,.04-.2,.01-.4,.02-.55,.03-.2,.01-.39,.02-.59,.02h-.05c-.1,0-.25,0-.4-.01-.05,0-.1,0-.15,0t-.1,0s-.03,0-.05,0h-.2c-.2-.03-.4-.05-.6-.08-.15-.03-.34-.07-.54-.11-.08-.02-.16-.03-.24-.05,.48,.13,1.01,.21,1.58,.25h.04l-6.47-3.37s.02,.02,.03,.03c.04,.03,.07,.06,.11,.1-.01,0-.02-.02-.03-.02-.02-.03-.05-.05-.08-.07l-.04-.03-1.55-.81s-.08-.01-.12,0c-1.84,.1-4.63,.49-10.6,2.44-5.97,1.95-26.61,13.54-30.05,16.37-3.43,2.82-1.84,3.99-1.39,7.01,.5,3.02-1.79,13.49-.7,16.61l2.03,1.14c2.83,.02,7.85-2.4,11.11-3.19l17.81,1.47c1.24,2.14-7.61,7.11-10.85,10.42-3.23,3.32,1.4,2.83,4.33,6.05,2.94,3.21-.4,4.96,.8,9.54,1.19,4.58,11.24,2.29,11.44,4.92,.2,2.64-6.32,5.75-10.8,7.8-4.52,2.04-.49,4.58,.9,7.89,1.34,3.31,14.03,4.96,14.13,7.21l-19.15,1.16-10.3-9.74c-1.79,1.26,.34,7.5,0,10.71-.4,3.22-5.03,1.27-5.53,4.2-.49,2.92,11.1,2.04,17.67,3.41,6.61,1.37,4.52,4.28,11.14,7.11,6.57,2.83,9.75,3.35,8.16,10.18-1.54,6.82-5.47,3.51-8.61,6.24-3.18,2.72,1.54,2.33,6.87,4.87,5.27,2.53,.4,3.12,.94,8.38l4.88,2.64h.15c.15,0,.35,0,.5,0,.15,0,.29,0,.49-.02,.15,0,.35-.01,.55-.02,.2,0,.4-.02,.6-.02,.45-.02,.94-.04,1.39-.06,.3,0,.65-.02,.95-.02h.74c.3,0,.65,.01,.95,.03,.35,.02,.69,.04,1.04,.08,.35,.03,.65,.08,1,.14,.3,.06,.64,.12,.94,.21,.25,.07,.5,.16,.75,.25,.3,.1,.55,.22,.8,.35,.14,.07,.29,.15,.44,.24,.05,.03,.05,.05,.1,.07,.05,.02,.05,.03,.1,.05,.05,.02,.05,.04,.1,.06,.15,.09,.25,.18,.4,.28,.15,.09,.25,.18,.4,.27,.1,.09,.2,.18,.3,.28,.15,.09,.24,.18,.34,.28,.05,.07,.15,.14,.2,.22,.05,.07,.15,.15,.2,.22l.15,.22c.05,.07,.1,.14,.15,.22,.05,.09,.1,.18,.15,.28,.05,.1,.1,.2,.1,.31,.05,.06,.05,.12,.05,.19v.19c.05,.08,0,.17,0,.25v.17s0,.08-.05,.12v.14c-.05,.15-.15,.3-.2,.44-.05,.02-.05,.05-.05,.07,0,.03-.05,.06-.05,.09-.05,.04-.05,.07-.1,.11,0,.05-.05,.09-.1,.14,0,.06-.05,.12-.1,.18-.05,.07-.15,.15-.2,.22-.1,.09-.15,.19-.25,.29-.14,.11-.24,.23-.34,.34-.1,.07-.2,.15-.25,.22-.1,.07-.2,.15-.25,.22-.15,.08-.25,.17-.35,.26-.1,.09-.2,.18-.35,.26-.15,.12-.3,.24-.45,.35-.14,.12-.29,.24-.49,.36-.25,.18-.5,.36-.75,.54-.25,.19-.55,.38-.8,.56-.29,.19-.59,.39-.84,.59-.3,.2-.6,.4-.9,.6-.2,.13-.39,.26-.54,.39-.1,.04-.15,.08-.2,.12-.05,.02-.05,.05-.1,.08-.05,.04-.1,.08-.15,.11-.2,.13-.4,.27-.6,.4-.25,.14-.5,.29-.7,.42-.24,.13-.44,.26-.69,.39-.2,.12-.45,.23-.7,.34-.2,.11-.45,.21-.65,.31-.24,.1-.49,.19-.74,.27-.2,.07-.45,.14-.65,.2-.2,.05-.4,.1-.6,.15-.09,.02-.19,.04-.29,.05-.05,.02-.15,.03-.25,.05-.1,.01-.15,.03-.25,.04s-.2,.02-.25,.04c-.1,.01-.2,.03-.25,.03-.1,.01-.2,.02-.25,.04-.1,.01-.15,.03-.25,.05-.1,.01-.15,.03-.24,.05-.1,.02-.15,.05-.25,.08-.1,.02-.15,.06-.2,.09-.05,.02-.1,.04-.15,.07-.05,.03-.1,.05-.1,.08-.05,.04-.1,.08-.15,.11-.05,.04-.1,.09-.15,.13-.05,.11-.15,.22-.2,.34-.05,.06-.1,.12-.1,.18-.05,.07-.1,.13-.1,.19-.05,.07-.1,.14-.1,.21-.05,.07-.05,.15-.1,.22,0,.09-.05,.17-.05,.26-.05,.03-.05,.05-.05,.08h0v.06c-.05,.03-.05,.06-.05,.09v.46c.05,.02,.05,.05,.05,.08,0,.02,0,.05,.05,.07,0,.03,0,.06,.05,.09,0,.03,.05,.06,.05,.09,.05,.07,.15,.14,.25,.2,.05,.05,.1,.09,.2,.13,.05,.02,.1,.04,.1,.06,.05,.02,.1,.04,.15,.05,.05,.02,.1,.04,.15,.05,.05,.02,.1,.03,.2,.05,.1,.03,.2,.06,.35,.08,.05,.02,.14,.03,.19,.04,.1,.01,.15,.02,.25,.03,.15,.02,.3,.04,.5,.05,.15,.01,.3,.02,.5,.03,.2,0,.4,.01,.6,.01,.29,0,.54,0,.84-.02,.25-.01,.5-.02,.75-.04,.3-.02,.55-.04,.84-.07,.3-.03,.6-.05,.9-.09,.3-.03,.65-.07,.94-.11,.35-.04,.65-.08,1-.13,.35-.05,.7-.1,.99-.16,.4-.05,.75-.11,1.1-.17,.4-.07,.79-.14,1.19-.21,.4-.07,.8-.15,1.2-.23,.4-.08,.79-.16,1.24-.25,.4-.08,.8-.17,1.19-.27,.4-.08,.8-.18,1.2-.27s.75-.18,1.14-.27c.35-.09,.7-.18,1.05-.27,.35-.09,.69-.18,.99-.27,.3-.08,.6-.16,.9-.25,.3-.07,.55-.15,.84-.24,.1-.04,.25-.08,.35-.12,.05,0,.05-.02,.1-.03,.05-.01,.05-.02,.1-.03,.05-.02,.15-.05,.2-.06,.25-.08,.5-.16,.8-.24,.74-.23,1.54-.45,2.33-.65,.75-.19,1.55-.36,2.29-.5,.75-.15,1.5-.27,2.29-.37,.4-.06,.8-.1,1.2-.14,.39-.04,.84-.07,1.24-.1,.4-.03,.85-.05,1.29-.05,.15,0,.3,0,.45,0h.5c.1,0,.25,0,.4,0,.39,0,.74,.02,1.14,.04,.35,.02,.75,.04,1.1,.08,.39,.03,.74,.07,1.14,.12,.75,.1,1.49,.22,2.29,.37,.2,.04,.4,.08,.6,.13,.05,0,.04,.02,.09,.02,0,0,.05,.01,.1,.02,0,.01,.05,.02,.1,.03,.05,.01,.15,.03,.2,.05,.1,.02,.15,.04,.2,.06,.1,.02,.15,.04,.2,.07,.05,.02,.15,.04,.2,.06,.05,.02,.1,.04,.15,.07,.05,.02,.1,.05,.2,.07,.05,.04,.1,.08,.2,.12,.05,.04,.1,.08,.15,.13,0,0,0,.01,.05,.02,.05,.05,.1,.12,.15,.19,0,.02,0,.05,.05,.08v.08s.04,.07,.04,.11v.17c0,.08-.04,.16-.04,.24,0,.01-.05,.02-.05,.03v.1c-.05,.02-.05,.04-.05,.06,0,.03-.05,.06-.05,.09-.05,.03-.05,.07-.1,.11,0,.05-.05,.1-.1,.14l-.15,.18c-.05,.08-.15,.15-.2,.22-.1,.09-.2,.17-.3,.26-.05,.06-.15,.11-.2,.16-.05,.05-.15,.11-.2,.16-.1,.06-.15,.13-.25,.19-.1,.07-.2,.13-.25,.2-.14,.07-.24,.15-.34,.23-.1,.08-.25,.16-.35,.24-.15,.11-.3,.22-.5,.32-.15,.11-.35,.23-.5,.34-.2,.11-.35,.23-.54,.35-.2,.12-.4,.24-.6,.36-.6,.39-1.25,.77-1.84,1.17-.25,.15-.45,.31-.7,.46-.2,.15-.45,.3-.65,.45-.19,.11-.34,.22-.49,.34-.15,.11-.3,.22-.45,.33-.15,.11-.3,.22-.45,.33-.15,.11-.3,.22-.4,.33-.15,.1-.25,.21-.39,.32-.1,.1-.2,.21-.35,.31-.1,.1-.2,.21-.3,.31-.1,.1-.2,.2-.3,.31-.1,.11-.2,.23-.3,.36-.1,.11-.15,.23-.25,.35,0,.05-.05,.1-.1,.15v.04s0,.02-.05,.03v.04c-.05,.05-.05,.1-.1,.15-.1,.18-.19,.37-.24,.56-.05,.11-.1,.23-.15,.35-.05,.1-.1,.2-.15,.3,0,.08-.05,.16-.1,.24,0,.06,0,.12-.05,.18-.1,.37-.2,.75-.25,1.13,0,.05,0,.1-.05,.16v.48c-.05,.13-.05,.26-.05,.4,.05,.15,.05,.31,.05,.46,0,.18,.05,.36,.1,.55,.05,.22,.1,.44,.2,.65,.05,.13,.1,.25,.15,.37,.05,.12,.1,.25,.2,.36,.05,.14,.15,.27,.24,.39,.1,.13,.2,.26,.3,.39,.2,.2,.4,.39,.65,.55,.1,.1,.25,.19,.4,.28,.2,.1,.35,.18,.55,.25,.09,.04,.24,.08,.34,.12,.05,0,.05,.02,.1,.02,0,0,0,0,.05,0h0s.05,.02,.05,.02c.05,.01,.1,.02,.15,.02h.1c.1,0,.2-.02,.25-.03,.05-.01,.1-.02,.15-.03,.05-.01,.1-.03,.15-.04,.05-.02,.15-.04,.2-.06,.05-.02,.1-.05,.2-.08,.05-.03,.1-.06,.2-.1,.05-.03,.14-.07,.19-.1,.1-.05,.2-.1,.25-.16,.1-.06,.2-.12,.3-.18,.1-.06,.2-.13,.3-.2,.1-.07,.2-.14,.3-.21,.15-.08,.25-.15,.35-.23s.2-.16,.3-.24c.24-.18,.49-.36,.69-.54,.15-.12,.3-.25,.5-.38,.15-.13,.3-.26,.45-.4,.35-.29,.69-.57,1.04-.86,.3-.23,.55-.45,.85-.68,.2-.18,.45-.37,.69-.55,.15-.13,.35-.27,.5-.4,.15-.13,.35-.25,.5-.38,.15-.12,.35-.24,.5-.36,.15-.11,.3-.22,.49-.32,.15-.1,.3-.2,.45-.3,.15-.1,.3-.19,.45-.28,.15-.08,.3-.17,.45-.25s.3-.15,.45-.22c.09-.05,.19-.1,.29-.15,.1-.05,.25-.09,.35-.13,.1-.04,.2-.07,.3-.11,.1-.03,.2-.06,.3-.09,.05-.02,.1-.02,.15-.04,.15-.03,.25-.05,.4-.07,.1-.02,.25-.03,.34-.03,.05,0,.1,0,.15,0,.15,0,.25,0,.35,0l.3,.02c.05,.01,.15,.01,.2,.02,.05,0,.1,.01,.15,.02l.15,.02c.25,.04,.55,.1,.79,.18,.05,.01,.1,.02,.15,.04,.05,.02,.1,.04,.15,.06,.1,.02,.15,.06,.25,.09,.1,.05,.2,.1,.3,.16,.1,.06,.25,.13,.35,.2s.2,.15,.3,.23c.05,.07,.15,.14,.2,.21,.1,.07,.15,.15,.24,.22,.1,.15,.25,.32,.4,.49,.15,.22,.3,.44,.45,.68,.05,.12,.1,.24,.2,.36,.05,.13,.15,.25,.2,.38,.05,.12,.15,.25,.2,.38,.1,.13,.15,.26,.25,.39,.05,.13,.15,.25,.2,.38,.09,.12,.14,.25,.24,.38,.05,.1,.15,.2,.2,.29,.05,.02,.05,.04,.05,.05,0,.01,0,.02,.05,.03v.05s.05,.04,.05,.07c.1,.11,.2,.22,.3,.33,.2,.18,.35,.36,.55,.52,.25,.18,.45,.34,.69,.5,.1,.08,.25,.16,.35,.24,.15,.08,.3,.16,.45,.24,.1,.08,.25,.16,.4,.23,.15,.07,.3,.15,.45,.23,.2,.08,.34,.17,.54,.25,.2,.08,.35,.16,.55,.24,.2,.08,.4,.16,.6,.23,.2,.08,.4,.16,.6,.23,.19,.08,.39,.16,.59,.23,.2,.08,.45,.15,.65,.23,.45,.16,.89,.31,1.34,.46,.3,.1,.6,.2,.85,.3,.35,.1,.64,.21,.94,.32,.15,.04,.25,.08,.35,.12,.05,.02,.1,.03,.1,.04,.05,.01,.05,.02,.1,.03,0,0,.05,.02,.1,.03,.05,.02,.15,.05,.25,.07,.05,.02,.15,.04,.2,.05,.1,.01,.15,.03,.2,.03,.05,.01,.15,.01,.2,.02h.1s.04,0,.04,0c.1,0,.2-.02,.3-.04,0,0,.05-.02,.1-.03,.05-.02,.05-.03,.1-.05,.05-.02,.1-.05,.1-.09,.05-.02,.05-.04,.1-.07,0-.01,.05-.03,.05-.05,0-.02,0-.03,.05-.05v-.03c.05-.07,.1-.16,.1-.24,.05-.01,.05-.03,.05-.04v-.12s.05-.06,.05-.09v-.12c.05-.05,.05-.11,.05-.16v-1.08c0-.08,0-.16-.05-.25v-.3c0-.11-.05-.22-.05-.33,0-.14-.05-.27-.05-.42s-.05-.3-.05-.45c-.05-.22-.05-.43-.1-.65,0-.18-.05-.36-.05-.53,0-.13,0-.26-.05-.39v-1.33c0-.09,.05-.18,.05-.26s0-.16,.05-.24c0-.08,0-.15,.05-.23v-.08c.05-.17,.1-.34,.2-.49,0-.02,0-.04,.05-.06v-.08c.05-.04,.1-.08,.1-.12,0-.02,.05-.04,.05-.06,0-.01,0-.03,.05-.04v-.05c.05-.03,.1-.06,.15-.08,0-.02,0-.03,.05-.03,0,0,.05-.02,.05-.02,.05,0,.05,0,.1,0s.1,0,.15,.02c.05,0,.05,.02,.1,.03,.05,.02,.05,.04,.1,.06,.05,.03,.09,.05,.14,.09,.05,.03,.05,.07,.1,.1,.05,.05,.1,.1,.15,.15,.05,.05,.1,.11,.15,.17,.1,.07,.15,.13,.2,.19l.15,.22c.1,.1,.15,.2,.2,.31,.1,.11,.15,.22,.25,.33,.05,.12,.15,.24,.2,.35,.1,.13,.15,.26,.25,.39,.1,.14,.15,.28,.24,.41,.05,.14,.15,.29,.25,.43,.05,.15,.15,.3,.25,.45,.05,.16,.15,.32,.25,.48,.2,.36,.35,.71,.55,1.07,.2,.38,.4,.77,.6,1.15,.19,.41,.44,.83,.64,1.24,.2,.43,.4,.86,.65,1.29,.3,.58,.6,1.16,.89,1.74,.4,.77,.8,1.54,1.2,2.3,.25,.45,.5,.9,.75,1.34,.19,.42,.44,.84,.69,1.26,.2,.35,.4,.7,.6,1.04,.2,.34,.4,.67,.6,1,.19,.32,.39,.64,.59,.96,.2,.3,.4,.61,.6,.9,.2,.29,.4,.58,.6,.86,.2,.27,.39,.54,.59,.81,.15,.26,.35,.51,.55,.76,.2,.24,.4,.47,.6,.71,.25,.27,.45,.53,.69,.79,.25,.24,.5,.48,.7,.71,.15,.1,.25,.2,.35,.3,.05,.03,.05,.05,.1,.08,0,.02,.05,.04,.05,.06,.05,.02,.05,.04,.1,.07,.1,.09,.2,.18,.3,.27,.2,.17,.44,.34,.64,.5,.2,.16,.4,.32,.6,.47,.35,.24,.65,.48,1,.7,.29,.22,.64,.43,.99,.63,.05,.04,.15,.08,.2,.13,.55,.29,1.04,.55,1.59,.77,.1,.04,.2,.07,.3,.11,.15,.07,.35,.14,.55,.21,.15,.06,.35,.12,.54,.17,.15,.05,.35,.1,.55,.14,.15,.04,.35,.08,.5,.11,.25,.04,.45,.07,.65,.1,.19,.02,.39,.05,.59,.06,.2,.01,.4,.03,.65,.04,.2,0,.4,.01,.6,.02,.3,0,.59,0,.84,0,.35,0,.7,0,1.1,.01,.2,0,.39,.01,.59,.02,.2,.01,.4,.03,.6,.04,.2,.02,.4,.04,.6,.07,.2,.03,.4,.07,.64,.11,.1,.02,.2,.04,.3,.07,0,.01,.05,.01,.05,.02,.05,0,.05,.01,.05,.01,0,0,.05,0,.05,0,.05,.02,.1,.03,.15,.04,.2,.05,.4,.09,.6,.12,.2,.03,.4,.07,.6,.09,.19,.02,.44,.05,.64,.06,.15,.01,.35,.03,.55,.04,.3,0,.55,.02,.85,.02,.1,0,.19,0,.29,0,.3,0,.6-.01,.9-.03,.35-.02,.7-.05,1.09-.09,.4-.04,.75-.1,1.15-.17,.4-.06,.79-.14,1.19-.23,.3-.06,.55-.13,.85-.2,.25-.07,.55-.14,.79-.23,.25-.08,.5-.16,.8-.26,.25-.09,.5-.18,.75-.28,.25-.09,.44-.19,.69-.29,.2-.1,.45-.2,.65-.31,.25-.1,.45-.21,.65-.33,.2-.11,.39-.22,.59-.34,.35-.2,.65-.41,1-.65,.3-.21,.55-.43,.84-.67,.15-.12,.25-.25,.4-.38,.05-.03,.05-.07,.1-.1,0,0,0-.02,.05-.02v-.02s0-.02,.05-.04c.05-.04,.1-.09,.15-.14,.1-.13,.25-.25,.4-.36,.3-.23,.6-.44,.89-.62,.05-.03,.1-.05,.15-.08,.05-.03,.1-.06,.15-.08,.1-.05,.2-.1,.3-.15,.15-.04,.25-.09,.35-.13,.1-.03,.25-.07,.35-.1,.1-.03,.2-.05,.35-.07,.1-.02,.2-.04,.29-.05l.3-.03c.15,0,.25-.01,.4-.01h.3s.15,.02,.2,.03c.05,0,.1,.01,.15,.02,.35,.04,.69,.11,.99,.2,.05,0,.1,.02,.15,.03,.05,.02,.1,.04,.2,.06,.05,.03,.15,.05,.25,.08,.1,.04,.2,.08,.35,.12,.1,.05,.25,.11,.4,.17,.2,.07,.39,.16,.59,.24,.25,.11,.45,.22,.7,.34,.35,.16,.7,.33,1.04,.5,.25,.12,.55,.25,.8,.37,.2,.1,.45,.21,.65,.31,.15,.04,.25,.09,.35,.14,.05,0,.05,.02,.1,.03,0,0-.01,.01,.04,.02,0,0,0,.02,.05,.02,.05,.02,.1,.04,.15,.06,.15,.04,.25,.07,.4,.09,.05,0,.15,.01,.2,.02,.05,0,.1,0,.15,0,0,0,.05,0,.05,0h.1c.1,0,.15-.01,.25-.03,.05-.02,.15-.03,.25-.05,.05-.02,.1-.03,.15-.05,.05-.01,.1-.03,.15-.05,.05-.02,.05-.03,.09-.04,.15-.08,.35-.19,.5-.3,.05-.01,.05-.03,.1-.05,0-.02,.05-.04,.1-.07,0-.03,.05-.05,.1-.08,.05-.04,.05-.08,.1-.12,.1-.05,.15-.1,.2-.16,.05-.07,.15-.14,.2-.22,.1-.1,.2-.2,.3-.3,.1-.13,.2-.27,.3-.42,.14-.18,.24-.36,.34-.56,.1-.12,.15-.24,.25-.36,.05-.12,.15-.25,.2-.38,.1-.16,.15-.31,.25-.47,.1-.16,.15-.33,.25-.5,.1-.2,.15-.41,.25-.61,.1-.21,.2-.42,.25-.64,.1-.27,.2-.53,.29-.8,.1-.29,.2-.57,.3-.85,.15-.43,.3-.86,.4-1.29,.15-.45,.25-.91,.4-1.37,.1-.47,.2-.94,.35-1.42,.1-.48,.2-.97,.3-1.45,0-.17,.05-.35,.1-.52v-.18s0-.06,.05-.09v-.11c0-.08,.05-.16,.05-.23,.05-.24,.04-.47,.09-.7,.15-.76,.25-1.52,.35-2.27,.1-.51,.2-1.02,.25-1.54,.1-.48,.15-.95,.25-1.43,.05-.46,.15-.91,.25-1.37,.05-.43,.15-.87,.25-1.3,.05-.41,.15-.82,.25-1.22,.1-.39,.2-.77,.3-1.16,.14-.36,.24-.72,.34-1.08,.15-.34,.25-.67,.4-.99,.1-.23,.2-.45,.3-.67,.1-.21,.25-.42,.35-.62,.2-.37,.45-.72,.74-1.06,.1-.15,.2-.29,.35-.42,.05-.04,.1-.09,.1-.13,.05-.02,.05-.02,.05-.03s0-.02,.05-.03c0-.02,0-.03,.05-.05,.1-.08,.15-.15,.3-.21,.05-.05,.15-.09,.2-.13,.1-.04,.2-.08,.3-.11,.1-.04,.2-.07,.35-.1,.1-.03,.2-.06,.34-.08,.15-.03,.3-.05,.4-.07,.15-.02,.3-.04,.45-.05,.15-.01,.3-.02,.45-.02,.15-.01,.3-.01,.45-.02h.34c.2,0,.4,.01,.6,.02,.2,.01,.45,.02,.65,.04,.25,.02,.49,.04,.74,.07,.25,.03,.55,.05,.8,.08,.3,.04,.55,.08,.85,.11,.29,.04,.59,.09,.89,.13,.3,.05,.6,.1,.9,.16,.3,.05,.64,.11,.94,.18,.35,.06,.7,.13,1,.2,.35,.07,.69,.15,1.04,.23,.4,.08,.75,.16,1.1,.24,.34,.08,.74,.17,1.09,.26,.75,.19,1.54,.38,2.29,.58,.8,.21,1.59,.42,2.39,.65,.59,.16,1.14,.32,1.69,.48,.6,.17,1.19,.34,1.74,.51,.6,.17,1.19,.35,1.74,.53,.6,.17,1.15,.35,1.69,.53,.65,.2,1.25,.4,1.89,.6,.25,.08,.5,.16,.75,.24,.05,.03,.15,.05,.2,.07,0,0,.05,.02,.05,.02,.05,0,.05,.02,.1,.03,.1,.03,.2,.06,.3,.1,.25,.08,.44,.16,.69,.25,.25,.09,.45,.19,.7,.3,.3,.11,.6,.24,.85,.36,.29,.13,.59,.26,.89,.39,.3,.14,.6,.29,.9,.44,.34,.15,.64,.31,.99,.47,.35,.17,.7,.34,1,.51,.34,.18,.69,.35,1.04,.53,.4,.19,.75,.38,1.1,.57,.2,.1,.38,.2,.57,.3v-219.97Zm-174.99,44.83s-.07-.06-.11-.09c-.01-.02-.03-.03-.04-.05-.11-.1-.22-.2-.33-.3-.02-.02-.05-.04-.08-.06-.01-.02-.03-.03-.04-.05,.04,.04,.08,.07,.12,.11,.06,.04,.1,.09,.17,.13,.04,.05,.1,.11,.16,.17,.05,.05,.1,.09,.16,.14,.04,.04,.08,.07,.14,.11,.1,.07,.15,.14,.25,.22,.06,.06,.13,.12,.21,.18-.21-.17-.41-.35-.59-.51Zm2.32,1.69c-.07-.03-.14-.06-.2-.1-.06-.03-.12-.07-.18-.11-.22-.13-.42-.26-.62-.4l-.05-.03s-.06-.05-.09-.08c-.19-.14-.36-.27-.53-.41,.09,.07,.18,.13,.27,.2,.07,.07,.17,.15,.26,.22,.05,.04,.09,.07,.14,.11,.13,.08,.27,.17,.4,.24,.06,.05,.14,.1,.22,.16,.12,.07,.25,.14,.38,.2,.1,.05,.2,.09,.29,.14,.05,.02,.1,.05,.15,.07-.15-.07-.3-.14-.44-.21Zm99.7-15.75c-.14-.01-.3-.02-.45-.04,.16,.01,.32,.03,.47,.04h-.02Zm57.06-19.34c-.07,0-.13,0-.2,0,.07,0,.13,0,.2,0Zm1.95-.18c-.14,.02-.28,.04-.42,.05,.14-.02,.28-.03,.42-.05Z"/><path class="c" d="M1200.92,547.53s.01,.04,.02,.06c0-.05-.01-.1-.02-.15v.1Z"/><path class="c" d="M1198.93,545.47s-.03,0-.05,0h.05Z"/><path class="c" d="M1200.97,548.14v.33c.01,.09,.02,.17,.02,.26,0-.23-.01-.47-.02-.69v.11Z"/><path class="c" d="M1200.94,547.58c.01,.15,.03,.3,.03,.45v-.21c0-.08,0-.16-.03-.24Z"/><path class="c" d="M1200.87,546.97s-.03-.07-.04-.1c.04,.18,.07,.37,.09,.56v-.18c-.05-.09-.05-.19-.05-.28Z"/><path class="c" d="M1119.95,528.9s.06,.09,.09,.15c-.01-.03-.03-.05-.03-.07-.03-.02-.05-.05-.07-.07Z"/><path class="c" d="M1120.19,529.26s.03,.07,.05,.1c0-.02-.01-.04-.01-.06l-.03-.04Z"/><path class="c" d="M1119.89,528.81s.02,.03,.03,.04c0-.01-.01-.03-.03-.04Z"/><path class="c" d="M1199.52,545.45s-.09-.02-.19-.02-.2,.01-.35,.03c0,0-.05,0-.05,.01,.25-.04,.47-.04,.67-.02-.03,0-.05,0-.08,0Z"/><path class="c" d="M1120.23,529.36c.02,.07,.05,.13,.09,.2l.03,.08h.01c-.04-.09-.09-.19-.13-.28Z"/><path class="c" d="M1261.1,525.56c.27,.63-.17,2.43-.43,5.2,.28-2.78,.73-4.57,.43-5.2Z"/><path class="c" d="M1258.68,483.32c0-2.08-2.09-3.63-4.6-3.63l-3.86,1.29-3.53,10.72c3.18-.78,11.99-5.27,11.99-8.38Z"/><path class="c" d="M1256.34,528.04c-2.74,4.67-7.26,7.01-.8,10.71l8.86-.59c0-3.89-4.33-1.55-3.73-7.4l.05-5.45c-.6,0-1.87,.86-4.38,2.73Z"/><path class="c" d="M1260.72,525.29v.02s.04,0,.06,0c-.02,0-.03-.02-.06-.02Z"/><path class="c" d="M1201.02,549.37c0-.22,0-.43-.03-.65,0,.24,.01,.49,.02,.73h0v-.09Z"/><path class="c" d="M1226.29,544.67h.02s-.01,0-.02,0Z"/><path class="c" d="M1254.03,479.69s.04,0,.05,0h.02s-.05,0-.07,0Z"/><path class="c" d="M1202.81,552.81h-.05c-.15,0-.25-.02-.4-.05,0,0,0,0-.05-.01-.05-.01-.1-.03-.15-.05-.05-.01-.1-.04-.15-.06-.05-.03-.1-.07-.15-.11-.05-.03-.1-.06-.1-.09h0s-.05-.05-.1-.08c0-.02-.05-.04-.05-.06,0-.01,0-.03-.05-.05-.05-.1-.14-.22-.19-.33v-.04s-.02-.04-.03-.06c0,0-.01-.01-.02-.02v-.05s-.02-.06-.03-.09c0,.02,.01,.03,.03,.05v.05s.02,.05,.02,.07c.02,.02,.03,.03,.03,.05h0c.1,.23,.23,.42,.39,.57h0c.25,.24,.59,.38,1.05,.38l-1.79-3.34v.25c0,.15,.01,.3,.02,.44,0-.04,0-.08-.02-.12v-.32h0c0-.09,0-.18,0-.27l-2.13-3.98s0,0-.05,0c-.05,.01-.05,.02-.1,.02-.2,.03-.4,.06-.6,.09-.2,.02-.35,.04-.55,.06-.14,.02-.34,.03-.49,.04-.2,.02-.35,.02-.55,.03-.05,0-.15,0-.25,.01h-.1c-3.18,0-6.62-1.13-16.76-3.57l-9.41-1.75c-1.59,.19-9.25,2.15-17.51,2.92l-11.74-3.9c-4.73-2.53-5.33-1.75-5.33-7.01s-4.72,.58-10.39,1.75l-4.69-4.53c.02,.06,.05,.12,.07,.18-.03-.06-.05-.13-.08-.19l-1.42-1.37c-.48,0-1.1,.3-1.95,1.04-4.93,4.29-6.32,10.13-6.32,16.36l25.37,4.49c6.87,3.51,13.34,2.92,23.19,3.5,9.8,.58,1.34,6.23,3.13,9.16l37.71-3.12,22.39-.19h.25c.2,0,.4-.02,.6-.03,.2-.01,.44-.03,.64-.06,.2-.03,.4-.06,.65-.1,.2-.04,.4-.08,.6-.14,.25-.07,.54-.16,.79-.27,.15-.05,.3-.11,.4-.18,.15-.07,.3-.14,.4-.22,.15-.1,.35-.2,.5-.32,.15-.12,.29-.24,.39-.38,.1-.09,.2-.18,.3-.28,.05-.1,.15-.2,.2-.3,.1-.14,.2-.29,.3-.44,.05-.1,.1-.21,.2-.33,0-.08,.05-.16,.1-.24,0-.06,.05-.11,.05-.17,0-.04,.05-.09,.05-.14,.1-.3,.2-.61,.25-.92,0-.04,0-.09,.05-.14v-.21c0-.08,.05-.17,.05-.26v-.34c.05-.15,.05-.3,.05-.44v-.55c-.05-.24-.05-.48-.05-.72-.05-.31-.1-.61-.15-.91-.05-.2-.05-.39-.1-.58-.05-.2-.1-.4-.15-.6-.05-.21-.1-.42-.15-.63-.05-.21-.15-.42-.2-.64-.05-.21-.15-.41-.2-.62-.1-.2-.15-.4-.25-.6-.05-.18-.15-.36-.2-.54-.1-.17-.15-.34-.25-.5-.05-.15-.14-.31-.19-.46-.05-.14-.15-.28-.2-.41-.05-.08-.1-.15-.15-.23-.05-.07-.05-.14-.1-.21-.05-.06-.1-.13-.15-.19,0-.06-.05-.11-.1-.17,0-.02-.05-.05-.05-.07s-.05-.05-.05-.07c0-.02-.05-.04-.05-.06,0-.02-.05-.03-.05-.05,0-.01,0-.02-.05-.03v-.03s-.05-.02-.05-.02h0l-.22-.05c-2.03-.06-15,4.85-21.37,7.64-.84,.36-1.49,.52-1.99,.51Zm-80.15-18.98c-.05-.04-.15-.09-.2-.13-.04-.03-.08-.06-.09-.09-.01-.01-.03-.02-.04-.03-.04-.02-.07-.04-.07-.06-.05-.02-.05-.04-.1-.07-.15-.16-.25-.34-.4-.52,0-.03-.05-.06-.05-.09-.05-.04-.05-.08-.1-.12,0-.05-.05-.11-.1-.17,0-.07-.05-.14-.09-.22-.05-.09-.1-.19-.15-.29-.05-.13-.1-.26-.15-.39-.09-.15-.13-.31-.18-.46-.03-.09-.07-.17-.1-.26-.03-.06-.05-.13-.08-.19-.05-.12-.1-.23-.15-.35,0-.06-.02-.13-.04-.19-.01-.04-.03-.08-.04-.11,.01,.02,.02,.03,.03,.05,0,.02,0,.04,.01,.06,.09,.23,.17,.48,.26,.73,.02,.06,.05,.12,.07,.19,0,.03,.02,.05,.02,.08,.33,.89,.73,1.79,1.38,2.39,.01,0,.02,.01,.03,.02,0,0,0,.01,0,.02,.11,.1,.23,.18,.35,.26-.02-.01-.04-.02-.06-.03Zm.5,.26s-.12-.05-.17-.08c.08,.04,.17,.08,.26,.11-.03,0-.05-.02-.09-.03Zm.99,.18s-.03,0-.06,0h-.05c-.09,0-.14,0-.24-.02-.05-.01-.15-.02-.2-.04-.1-.01-.14-.03-.19-.05-.05-.01-.09-.02-.13-.04,.23,.07,.48,.12,.76,.13h.05c.09,0,.18,0,.27,0-.07,0-.14,.01-.21,.01Zm76.97,16.63s0,.02,0,.03c-.01-.08-.02-.16-.03-.24,.01,.07,.03,.14,.03,.21Zm.08,.4s.02,.07,.02,.1c0,.01,0,.02,0,.03-.01-.04-.02-.09-.03-.13Zm.05,.22s.01,.03,.03,.05c0,.01,0,.03,0,.04-.01-.03-.02-.06-.03-.09Z"/><path class="c" d="M1254.03,479.69c-.58,0-1.18,.1-1.78,.28,.61-.18,1.21-.27,1.78-.28Z"/><path class="c" d="M1226.28,544.67s-.03,0-.04,0h0s.03,0,.04,0Z"/><path class="c" d="M1120.07,529.11s.08,.1,.12,.15c-.04-.08-.09-.14-.14-.21,.01,.02,.02,.05,.02,.07Z"/><path class="c" d="M1119.03,528.27s-.05,0-.1,0h0s.07,0,.1,0h0Z"/><path class="c" d="M1119.87,528.79s.01,.01,.02,.02c0-.01-.02-.03-.02-.04,0,0,0,.01,0,.02Z"/><path class="c" d="M1226.36,544.69s.02,0,.03,0h-.03Z"/><path class="c" d="M1119.92,528.87s.02,.02,.03,.03c-.01-.02-.02-.04-.03-.05,0,0,0,.01,0,.02Z"/><path class="c" d="M1226.19,544.66h-.02s.05,0,.07,0c0,0,0,0-.05,0Z"/><path class="c" d="M1220.07,363.02c4.23,.59-.4,4-.84,7.3l12.43,4.28c6.72-.58-.1-2.43-2.83-7.3-2.74-4.87,2.64-3.7,2.24-6.43-.35-2.73-5.38-4.78-8.21-4.28-2.84,.48-6.92,.97-10.7,2.72-4.63,1.66,3.73,3.11,7.91,3.7Z"/><path class="c" d="M1226.34,544.69h.02s-.02,0-.02,0h0Z"/><path class="c" d="M1229.03,425.65l9.85,7.02c5.07-2.14,10.2-2.73,8.01-5.66l-17.86-1.36Z"/><path class="c" d="M1119.52,528.45s0-.02-.05-.03c.11,.06,.2,.14,.29,.24-.05-.07-.15-.15-.25-.2Z"/><path class="c" d="M1119.36,528.34s.05,.02,.08,.04h0s-.05-.03-.07-.04Z"/><path class="c" d="M1119.24,528.3s.08,.02,.12,.04c0,0-.01,0-.03-.01-.03-.01-.06-.02-.09-.03Z"/><path class="c" d="M1002.21,437.13h-.04s-.04,0-.06,0c.03,0,.07,0,.11,0Z"/><path class="c" d="M1119.81,528.69h0Z"/><path class="c" d="M1119.82,528.73s.03,.02,.04,.02c-.01-.02-.03-.04-.04-.06v.04Z"/><path class="c" d="M1119.77,528.66s0,.02,.04,.03c-.01-.01-.03-.02-.04-.03h0Z"/><path class="c" d="M1119.47,528.41h0s-.03-.02-.04-.03c0,0,.04,.02,.04,.03Z"/><path class="c" d="M1119.12,528.28s.08,.02,.12,.03c-.02,0-.04-.01-.06-.02-.02,0-.04,0-.06,0Z"/><path class="c" d="M1119.86,528.76h0Z"/><path class="c" d="M1041.36,470.7c.05-.02,.1-.05,.15-.08-.19,.08-.38,.16-.57,.23,.14-.05,.27-.1,.42-.15Z"/><path class="c" d="M1080.77,509.38l7.66,5.07-4.18-14.42c-1.29,3.22-3.93,7.78-3.48,9.35Z"/><path class="c" d="M1041.61,406.18h.03c.05,0,.11,0,.16,0-.06,0-.13,0-.19,0Z"/><path class="c" d="M1047.73,466.46s.05-.02,.05-.02h0s-.06,.03-.1,.05c.02,0,.04-.02,.05-.03Z"/><path class="c" d="M1076.54,441.78c2.79,.58,11.59,7.8,15.32,9.16l11-1.17c3.58-2.14,5.92-7.41,3.93-10.33-.36-.54-.79-.7-1.29-.65,.03,0,.06,0,.09-.01h.1l-9.1-1.28c-4.13-7.21-1.19-9.74-7.86-12.86-6.67-3.12-19.35-10.82-24.83-13.15l-22.26-5.29c-.51,0-1.01,0-1.52,.03-9.8,.98-13.73,2.34-17.26,3.89-3.53,1.56-14.53,11.49-11.99,16.96,2.53,5.45,1.39,4.48,9.4,9.34,8.06,4.88,13.58,6.63,12.59,11.11-1,4.49-5.67,4.88-4.33,10.33,1.39,5.45-1.74,11.68,5.72,13.24,1.2,.25,2.25,.35,3.21,.35l10.32-5.02h0s.03-.02,.04-.02c-.01,0-.02,.01-.04,.02l1.42-.39c-.08,0-.17,0-.25,0,.03,0,.05,0,.08,0,.05,0,.1,0,.1-.01h.07c3.75-.01,8.31,7.06,10.37,10.34,2.34,3.7,2.74,13.05,5.68,13.83l7.96-13.15,14.52,8.57,8.46,6.83c2.39-3.51-1.34-11.7-4.33-18.12-2.93-6.43-6.27-16.37-11.39-21.04-5.08-4.67-6.67-12.08-3.93-11.49Zm26.91-2.16c.08-.05,.16-.09,.25-.14,.1-.05,.2-.1,.3-.15,.06-.03,.12-.05,.18-.08,.08-.04,.17-.08,.25-.12,.04-.02,.07-.04,.12-.06l.07-.02c.14-.06,.28-.11,.42-.15h.01l.05-.02s-.04,.01-.06,.02c-.05,.02-.14,.05-.19,.07-.08,.03-.15,.05-.23,.08-.06,.03-.13,.06-.19,.09-.04,.02-.08,.04-.13,.06-.04,.02-.08,.04-.12,.06-.23,.11-.48,.24-.73,.37l-.19,.11c-.15,.06-.25,.12-.4,.19h-.01c.21-.09,.41-.2,.61-.3Zm-.64,.32c-.08,.04-.17,.08-.25,.11-.05,.03-.15,.06-.2,.09-.03,0-.06,.02-.08,.02,.18-.07,.36-.15,.53-.23Zm-.8,.33s.06-.02,.09-.03c-.03,.01-.06,.02-.09,.03h0Zm-.9,.24h.02c.08-.02,.15-.03,.23-.05,.18-.04,.35-.09,.55-.16h.02c-.19,.06-.38,.11-.57,.16-.05,.01-.09,.02-.14,.03-.04,0-.05,0-.09,.01h-.02s-.09,.02-.09,.02c-.1,0-.15,.02-.2,.02h-.06c.12,0,.23-.02,.34-.04Zm-.38,.04s-.09,0-.11,0c0,0-.05,0-.05,0h-.05s-.05,0-.07,0c.09,0,.19,0,.28,0Zm-52.91,25.85h0c.05-.03,.1-.06,.15-.08,.02-.01,.04-.02,.07-.03-.07,.03-.15,.07-.22,.11Zm.41-.19s.07-.03,.1-.04c.1-.04,.25-.07,.35-.1,.07-.01,.15-.02,.23-.03-.23,.02-.46,.08-.68,.17Z"/><path class="c" d="M1042.51,470.13c.2-.12,.4-.25,.65-.39,.19-.14,.39-.28,.64-.43,.2-.15,.4-.32,.65-.47,.2-.18,.45-.36,.7-.53,.16-.13,.32-.26,.48-.39-1.07,.82-2.1,1.65-3.29,2.31,.06-.03,.11-.06,.17-.09Z"/><path class="c" d="M1037.88,471.45h.03c-.14,0-.3,0-.45,0h-.03c.15,.01,.3,0,.45,0Z"/><path class="c" d="M1046.99,466.95c.06-.06,.14-.11,.22-.16-.16,.1-.32,.21-.47,.32,.08-.05,.16-.1,.25-.16Z"/><path class="c" d="M1045.74,467.83l-.11,.09c.36-.28,.73-.55,1.1-.81-.14,.09-.27,.18-.4,.27-.2,.15-.4,.3-.6,.45Z"/><path class="c" d="M1042.08,470.35c-.09,.04-.18,.09-.27,.13-.1,.05-.2,.1-.3,.15,.2-.09,.38-.18,.57-.28Z"/><path class="c" d="M1035.96,400.73c.28,0,.55,0,.83-.01h.3c-.38,0-.75,0-1.13,.01Z"/><path class="c" d="M1039.62,400.63c-.37,.02-.76,.03-1.14,.04,.64-.02,1.28-.05,1.89-.07-.25,0-.5,.02-.76,.03Z"/><path class="c" d="M1041.56,400.56s.01,0,.03,0c-.39,.01-.8,.03-1.21,.05,.25,0,.5-.02,.74-.03,.15,0,.29,0,.44-.01Z"/><path class="c" d="M1150.02,422.88c3.73-2.93,5.13-4.48,4.33-7.6l-13.73-.79,9.4,8.39Z"/><path class="c" d="M1038.48,400.67c-.46,.02-.92,.03-1.39,.04,.4-.01,.79-.02,1.19-.04,.07,0,.13,0,.2,0Z"/><path class="c" d="M1038.83,471.36c-.28,.04-.56,.06-.86,.08,.21,0,.39-.02,.61-.04,.08,0,.16-.02,.25-.03Z"/><path class="c" d="M1040.68,470.95c.09-.03,.17-.06,.26-.09-.04,.01-.08,.03-.12,.04-.04,.02-.09,.03-.14,.05Z"/><path class="c" d="M1039.77,471.2h.01c-.24,.05-.48,.1-.73,.13,.04,0,.08-.01,.12-.02,.19-.04,.39-.07,.59-.12Z"/><path class="c" d="M1040.32,471.06c.14-.04,.25-.08,.36-.12-.22,.07-.44,.14-.67,.2,.1-.03,.2-.05,.31-.08Z"/><path class="c" d="M1163.94,283.73c-.14-.02-.28-.05-.43-.09,.1,.03,.21,.05,.34,.08,.03,0,.06,0,.09,.01Z"/><path class="c" d="M1163.14,283.54c.13,.04,.26,.07,.38,.1-.05-.01-.1-.03-.15-.04-.08-.02-.15-.04-.22-.06Z"/><path class="c" d="M1161.96,428.18c3.14,4.67,7.07,8.18,10.4,10.72l6.47,3.51c3.58-3.32,.69-6.85-1.59-7.53-2.24-.69-6.07-.1-6.47-2.28-.4-2.2,1.64-5.27-1.1-6.58l-8.45-1.75c-.05,1.11,.25,2.28,.74,3.92Z"/><path class="c" d="M1164.16,283.76s.1,.02,.14,.02c.05,0,.1,0,.15,0-.1,0-.19-.02-.3-.03Z"/><path class="c" d="M1195.89,460.55l-6.07-.87c-1.79,1.26-3.43,2.43-4.03,4.58-.59,2.14,3.34,6.72,4.13,6.43,.8-.3,5.77-6.43,5.97-10.14Z"/><path class="c" d="M1139.38,482.61l10,2.61,.05-7.67c-5.13,2.14-12.99,4.09-10.05,5.06Z"/><path class="c" d="M1160.17,293.66l-5.87-5.84c-.89,.2-4.53,3.89-3.33,6.33l6.66,3.5c2.24-1.36,4.23-.39,2.54-3.99Z"/><path class="c" d="M1137.83,406.07h0s-.01,0-.02,0c0,0,.02,0,.03,0Z"/><path class="c" d="M1122.71,383.91c-7.66-2.73-10.8-3.7-12.54-7.01l-7.06-6.2-1.79,.16c-4.73,1.95-12.79,3.12-10.8,5.26,1.94,2.14,7.66,2.92,10.8,5.84,3.13,2.93,7.06,9.74,8.25,10.72,1.15,.97,3.14,3.11,10.2,3.7l12.59,.97c.18,.25,.34,.53,.51,.82,1.35,2.32,2.48,5.63,3.71,7.12-1.21-1.48-2.32-4.72-3.66-7.03l4.9,7.81c.26,0,.53-.1,.81-.33,2.34-1.95,1.99-12.48-1.74-16.17-3.73-3.7-6.52-2.92-14.18-5.65Z"/><path class="c" d="M1200.64,546.28s.02,.04,.03,.06v-.03s-.01-.02-.03-.03Z"/><path class="c" d="M1208.88,410.65c2.78-4.09,4.72-7.4,5.32-11.69l-10.2-6.04c-.99,4.48-2.73,9.15-.99,12.08l5.87,5.65Z"/><path class="c" d="M1200.42,545.91s-.05-.04-.05-.06c0-.02-.05-.04-.05-.07-.05-.03-.1-.06-.1-.08-.05-.04-.1-.07-.15-.1-.05-.02-.1-.05-.15-.06-.05-.02-.1-.03-.15-.04-.03-.02-.09-.03-.15-.03,.41,.07,.7,.28,.9,.59-.02-.03-.03-.07-.05-.11-.05-.02-.05-.03-.05-.04Z"/><path class="c" d="M1200.79,546.69c.01,.05,.03,.11,.04,.16,0-.03,0-.07,0-.1-.02-.02-.03-.04-.03-.06Z"/><path class="c" d="M1200.62,546.26s.01,.01,.02,.02c-.04-.08-.08-.16-.12-.23,.03,.07,.07,.13,.1,.21Z"/><path class="c" d="M1200.69,546.4s-.01-.04-.02-.06v.04s.01,.02,.02,.02Z"/><path class="c" d="M1181.86,324.88c-.84,.25-1.49,.35-1.99,.35h-.1c-.05,0-.15,0-.2,0-.1,0-.19-.02-.29-.03-.1-.01-.2-.03-.3-.05-.1-.02-.2-.04-.3-.07-.1-.03-.25-.07-.35-.12-.15-.04-.25-.09-.4-.14-.1-.05-.2-.09-.3-.13-.1-.03-.15-.06-.19-.09-.1-.03-.15-.06-.25-.09-.05-.03-.15-.05-.2-.08-.1-.03-.15-.05-.25-.08-.1-.03-.2-.06-.3-.1-.1-.03-.2-.06-.3-.09-.1-.03-.2-.05-.35-.08-.1-.03-.2-.05-.34-.07-.15-.03-.3-.05-.45-.07-.15-.02-.3-.04-.5-.05-.15-.02-.35-.03-.55-.04-.1,0-.15,0-.25,0-4.03,0-2.38,4.39-1.59,8.18l8.26-1.65c3.83-1.56,2.64,2.53,5.87,5.06l3.93-13.06-1.09-1.67-7.22,4.21Z"/><path class="c" d="M1189.92,470.69h-.1c.05,.01,.05,0,.1,0Z"/><path class="c" d="M1200.77,546.59s-.05-.08-.05-.12c0-.02,0-.05-.03-.07,.03,.08,.06,.15,.08,.24,0-.02,0-.03,0-.05Z"/></g></svg>